<mxfile host="app.diagrams.net" agent="Mozilla/5.0 (Windows NT 10.0; Win64; x64) AppleWebKit/537.36 (KHTML, like Gecko) Chrome/131.0.0.0 Safari/537.36" version="24.8.8">
  <diagram name="全体図" id="pniu4EMNUFVMAbQXsmex">
    <mxGraphModel dx="1834" dy="1138" grid="0" gridSize="10" guides="1" tooltips="1" connect="1" arrows="1" fold="1" page="0" pageScale="1" pageWidth="827" pageHeight="1169" math="0" shadow="0">
      <root>
        <mxCell id="0" />
        <mxCell id="1" parent="0" />
        <mxCell id="PzC8XA7HAqpgWdMevNyF-1" value="DNS&lt;div&gt;firewore&lt;/div&gt;" style="whiteSpace=wrap;html=1;align=left;" parent="1" vertex="1">
          <mxGeometry x="102" y="-149" width="120" height="828" as="geometry" />
        </mxCell>
        <mxCell id="bbAkyL6tMdeNT06zovwA-2" value="" style="shape=image;verticalLabelPosition=bottom;labelBackgroundColor=default;verticalAlign=top;aspect=fixed;imageAspect=0;image=data:image/jpeg,iVBORw0KGgoAAAANSUhEUgAABaIAAAWOCAYAAACR81CzAAAACXBIWXMAAA7EAAAOxAGVKw4bAAAgAElEQVR42uzdcYze9WHf8c/3ufPhczyHOJnlocx3hFt2qjIvilhLOw91rZdtqK1ItkIzJSxdUpqMkg4YSisbonFnRTQLtLUsVtp0U9lEhrYm7dqsqqJKo1VHOxZtFprczhTbzRBBYBzXuTsf9/y++8NORBICGN/Xv7vnXi/JMvfIsj/wD8/z9ve+v1JrDQAAAAAAtDLoewAAAAAAAKNNiAYAAAAAoCkhGgAAAACApoRoAAAAAACaEqIBAAAAAGhKiAYAAAAAoCkhGgAAAACApoRoAAAAAACaEqIBAAAAAGhKiAYAAAAAoCkhGgAAAACApoRoAAAAAACaEqIBAAAAAGhKiAYAAAAAoCkhGgAAAACApoRoAAAAAACaEqIBAAAAAGhKiAYAAAAAoCkhGgAAAACApoRoAAAAAACaEqIBAAAAAGhKiAYAAAAAoCkhGgAAAACApoRoAAAAAACaEqIBAAAAAGhKiAYAAAAAoCkhGgAAAACApoRoAAAAAACaEqIBAAAAAGhKiAYAAAAAoCkhGgAAAACApoRoAAAAAACaEqIBAAAAAGhKiAYAAAAAoCkhGgAAAACApoRoAAAAAACaEqIBAAAAAGhKiAYAAAAAoCkhGgAAAACApoRoAAAAAACaEqIBAAAAAGhKiAYAAAAAoCkhGgAAAACApoRoAAAAAACaEqIBAAAAAGhKiAYAAAAAoCkhGgAAAACApoRoAAAAAACaEqIBAAAAAGhKiAYAAAAAoCkhGgAAAACApoRoAAAAAACaEqIBAAAAAGhKiAYAAAAAoCkhGgAAAACApoRoAAAAAACaEqIBAAAAAGhKiAYAAAAAoCkhGgAAAACApoRoAAAAAACaEqIBAAAAAGhKiAYAAAAAoCkhGgAAAACApoRoAAAAAACaEqIBAAAAAGhKiAYAAAAAoCkhGgAAAACApoRoAAAAAACaEqIBAAAAAGhKiAYAAAAAoCkhGgAAAACApoRoAAAAAACaEqIBAAAAAGhKiAYAAAAAoCkhGgAAAACApoRoAAAAAACaEqIBAAAAAGhKiAYAAAAAoCkhGgAAAACApoRoAAAAAACaEqIBAAAAAGhKiAYAAAAAoCkhGgAAAACApoRoAAAAAACaEqIBAAAAAGhKiAYAAAAAoCkhGgAAAACApoRoAAAAAACaEqIBAAAAAGhKiAYAAAAAoCkhGgAAAACApoRoAAAAAACaEqIBAAAAAGhKiAYAAAAAoCkhGgAAAACApoRoAAAAAACaEqIBAAAAAGhKiAYAAAAAoCkhGgAAAACApoRoAAAAAACaEqIBAAAAAGhKiAYAAAAAoCkhGgAAAACApoRoAAAAAACaEqIBAAAAAGhKiAYAAAAAoCkhGgAAAACApoRoAAAAAACaEqIBAAAAAGhKiAYAAAAAoCkhGgAAAACApoRoAAAAAACaEqIBAAAAAGhKiAYAAAAAoCkhGgAAAACApoRoAAAAAACaEqIBAAAAAGhKiAYAAAAAoCkhGgAAAACApoRoAAAAAACaEqIBAAAAAGhKiAYAAAAAoCkhGgAAAACApoRoAAAAAACaEqIBAAAAAGhKiAYAAAAAoCkhGgAAAACApoRoAAAAAACaEqIBAAAAAGhKiAYAAAAAoCkhGgAAAACApoRoAAAAAACaEqIBAAAAAGhKiAYAAAAAoCkhGgAAAACApoRoAAAAAACaEqIBAAAAAGhKiAYAAAAAoCkhGgAAAACApoRoAAAAAACaEqIBAAAAAGhKiAYAAAAAoCkhGgAAAACApoRoAAAAAACaEqIBAAAAAGhKiAYAAAAAoCkhGgAAAACApoRoAAAAAACaEqIBAAAAAGhKiAYAAAAAoCkhGgAAAACApoRoAAAAAACaEqIBAAAAAGhKiAYAAAAAoCkhGgAAAACApoRoAAAAAACaEqIBAAAAAGhKiAYAAAAAoCkhGgAAAACApoRoAAAAAACaEqIBAAAAAGhKiAYAAAAAoCkhGgAAAACApoRoAAAAAACaEqIBAAAAAGhKiAYAAAAAoCkhGgAAAACApoRoAAAAAACaEqIBAAAAAGhKiAYAAAAAoCkhGgAAAACApoRoAAAAAACaEqIBAAAAAGhKiAYAAAAAoCkhGgAAAACApoRoAAAAAACaEqIBAAAAAGhKiAYAAAAAoCkhGgAAAACApoRoAAAAAACaEqIBAAAAAGhKiAYAAAAAoCkhGgAAAACApoRoAAAAAACaEqIBAAAAAGhKiAYAAAAAoCkhGgAAAACApoRoAAAAAACaEqIBAAAAAGhKiAYAAAAAoCkhGgAAAACApoRoAAAAAACaEqIBAAAAAGhKiAYAAAAAoCkhGgAAAACApoRoAAAAAACaEqIBAAAAAGhKiAYAAAAAoCkhGgAAAACApoRoAAAAAACaEqIBAAAAAGhKiAYAAAAAoCkhGgAAAACApoRoAAAAAACaEqIBAAAAAGhKiAYAAAAAoCkhGgAAAACApoRoAAAAAACaEqIBAAAAAGhKiAYAAAAAoCkhGgAAAACApoRoAAAAAACaEqIBAAAAAGhKiAYAAAAAoCkhGgAAAACApoRoAAAAAACaEqIBAAAAAGhKiAYAAAAAoCkhGgAAAACApoRoAAAAAACaEqIBAAAAAGhKiAYAAAAAoCkhGgAAAACApoRoAAAAAACaEqIBAAAAAGhKiAYAAAAAoCkhGgAAAACApoRoAAAAAACaEqIBAAAAAGhKiAYAAAAAoCkhGgAAAACApoRoAAAAAACaEqIBAAAAAGhKiAYAAAAAoCkhGgAAAACApoRoAAAAAACaEqIBAAAAAGhKiAYAAAAAoCkhGgAAAACApoRoAAAAAACaEqIBAAAAAGhKiAYAAAAAoCkhGgAAAACApoRoAAAAAACaEqIBAAAAAGhKiAYAAAAAoCkhGgAAAACApoRoAAAAAACaEqIBAAAAAGhKiAYAAAAAoCkhGgAAAACApoRoAAAAAACaEqIBAAAAAGhKiAYAAAAAoCkhGgAAAACApoRoAAAAAACaEqIBAAAAAGhKiAYAAAAAoCkhGgAAAACApoRoAAAAAACaEqIBAAAAAGhKiAYAAAAAoCkhGgAAAACApoRoAAAAAACaEqIBAAAAAGhKiAYAAAAAoCkhGgAAAACApoRoAAAAAACaEqIBAAAAAGhKiAYAAAAAoCkhGgAAAACApoRoAAAAAACaEqIBAAAAAGhKiAYAAAAAoCkhGgAAAACApoRoAAAAAACaEqIBAAAAAGhKiAYAAAAAoCkhGgAAAACApoRoAAAAAACaEqIBAAAAAGhKiAYAAAAAoCkhGgAAAACApoRoAAAAAACaEqIBAAAAAGhKiAYAAAAAoCkhGgAAAACApoRoAAAAAACaEqIBAAAAAGhKiAYAAAAAoCkhGgAAAACApoRoAAAAAACaEqIBAAAAAGhKiAYAAAAAoCkhGgAAAACApoRoAAAAAACaEqIBAAAAAGhKiAYAAAAAoCkhGgAAAACApoRoAAAAAACaEqIBAAAAAGhKiAYAAAAAoCkhGgAAAACApoRoAAAAAACaEqIBAAAAAGhKiAYAAAAAoCkhGgAAAACApoRoAAAAAACaEqIBAAAAAGhKiAYAAAAAoCkhGgAAAACApoRoAAAAAACaEqIBAAAAAGhKiAYAAAAAoCkhGgAAAACApoRoAAAAAACaEqIBAAAAAGhKiAYAAAAAoCkhGgAAAACApoRoAAAAAACaEqIBAAAAAGhKiAYAAAAAoCkhGgAAAACApoRoAAAAAACaEqIBAAAAAGhKiAYAAAAAoCkhGgAAAACApoRoAAAAAACaEqIBAAAAAGhKiAYAAAAAoCkhGgAAAACApoRoAAAAAACaEqIBAAAAAGhKiAYAAAAAoCkhGgAAAACApoRoAAAAAACaEqIBAAAAAGhKiAYAAAAAoCkhGgAAAACApoRoAAAAAACaEqIBAAAAAGhKiAYAAAAAoCkhGgAAAACApoRoAAAAAACaEqIBAAAAAGhKiAYAAAAAoCkhGgAAAACApoRoAAAAAACaEqIBAAAAAGhKiAYAAAAAoCkhGgAAAACApoRoAAAAAACaEqIBAAAAAGhKiAYAAAAAoCkhGgAAAACApoRoAAAAAACaEqIBAAAAAGhKiAYAAAAAoCkhGgAAAACApoRoAAAAAACaEqIBAAAAAGhKiAYAAAAAoCkhGgAAAACApoRoAAAAAACaEqIBAAAAAGhKiAYAAAAAoCkhGgAAAACApoRoAAAAAACaEqIBAAAAAGhKiAYAAAAAoCkhGgAAAACApoRoAAAAAACaEqIBAAAAAGhKiAYAAAAAoCkhGgAAAACApoRoAAAAAACaEqIBAAAAAGhKiAYAAAAAoCkhGgAAAACApsb7HgAAABvJ2UOzE0lSz764OZvKeP3qixMpg4nUenlq3VFTtmZQtyVJurI5NZfXUt6Y1MtLzdaUTKRm2/nfbmtSJpJsqakTpZbxlGx56Z9Xa8ZLqePn/rmslJKVbxpU6kqtWSgpyzVZLqkLNWU5yekkKalnasmZUrOUQb6aLqcyVk+lK6dL6plzf0hOZVBOJfVMeeOm5bxYV8plm5Yuu+XIct//vQEAWBtKrbXvDQAAMBLOHpqdqN3K1iSpp4dbvxGX62B7Sr08JTvT5a+e/+VX1JQdpebylGypybYkE+d/rE21S8o3fVNld/7nhdQslEFdqrU8W1KfTfLc+R9Jcjwpz5TSnXxptB7seOPpJLns5sMLff+rAQDQlhANAAAX6Oyh2Ynu1NmdGXY76ljZkS5vrSlTpda31pQrkqQkO5K8pSZvSTLxMhF3I1ouyXM19XRJnk3J00mSmqdT8ic599pzpZQTg7/8l54TqAEARocQDQAA38HSwZnt3VdXvitduSKpO2vJX0+S1PL2JJeXUnfUWnZmLZ9iXl+61DxXSp6pybMl9ekM8mSSpNRjqeXPSurRyf3Hn+l7KAAAF2bDH8kAAAAAAKAtJ6IBANjwvnHyudS3JUmG5W8mmU3KW/PS6zW4NGqSfNtVJt+41iMpXy6ph1PyJyn5P0nipDQAwNomRAMAsGGcfXD3liTpvvLVXTVltqb8rVLrO2vytpLsqClbz/9S0Xl9WD7/I0n9ckn+LMmRlPx+ST1S3jD+9Obbnzzd90gAAIRoAABG1PIj7xsf/ukfviUpO2qp76xd+Z5Sy7uSpCbvSLL1Iv8I1rYzJXkiqU8kSUr+x6a/seOPh39+8kQZjJ+57JYjy30PBADYSIRoAABGwuL81M4kSZe31rF8V7l85W93z0+8K8nuOOHMOctJDqfUPy7J/y61fimDfNmVHgAA7QnRAACsS2cPzU50LyzNfutp56S+vQ4H2zNMMuG9Li9Rk5RveuVMSZ6opX4pScqg/lGp5X8N3rT5iBPTAACrS4gGAGBdWLrvqm1JUr+28t21lO9Ll+9JLW+vJW9LMrjI3x6SJKXmaEr90wzyR6XWPyyXb/rS5luPnux7FwDAeidEAwCwZi3OT+2sJe8+f+J5z7lX61tryva+tzGiapeUc3+vUVJPJuXLtdQ/SJJSy38rg+5RV3kAAFw4IRoAgDXh7KHZiSTpTp3dWdN9f4blB5OytyZviTueWRuWS/JcSn00tXyuDLpHB2+aPOkaDwCAV+dbGAEAAAAAaMqJaAAAenP2wd1bumdPX1G78q6U+p7zL39frWVX39vg1ZTk6ZT6aAb1v5Za/jBJBm/afMIJaQCAbydEAwBwyS3OT8/UUr8vw/KDKfn+ujLYlcH596Wl73Vw4UqpJ5IkNb+bkt8uJU9M7j92tO9dAABrhRANAEBzi/NTO5OkdoNrk/r3arIntcx+4xeIz4yYkhyupf5BGeS3B9vGH9t869GTfW8CAOiTEA0AQDML89N7ai3/MDXvPv/S7nz9wYM1AjQbwZmSPFFLfi9JBrX73OTdxx/vexQAwKUmRAMAsKoWD1y5q3b1H9RafjQ1u1Oyo+9NsGbUPFtKfTxj9T8Otm36LSelAYCNQogGAOCinH1w95bhs6fflSS15n2llutrsjPJoO9tsIZ1pebPUupvltSHB2+ePJwkHnQIAIwqIRoAgNdl8cCVu2q676/DwQeS/MD5l8VnuHDLSX4rSUqpD5VSH5vcf/yZvkcBAKwmHxQAAAAAAGjKiWgAAC7I4j1TV9dBua52eV9SZvveAyOhdud+LoOU5LGkfq6U+puTdx0/0vc0AIDVIEQDAPCKzh6anUiS4cml61LznqTsrTVXJElK3+tgRNWkJEfroP5uKXl4y/5jf9D3JACAiyFEAwDwspbuu2pb97Xhj9VafvT8S9ck2dr3LthoSvJ0TR4b/2uLDyVJGfu7vzVxw8Mrfe8CALgQQjQAAN9k6eDM9mxZ/GD3/yb+aU1mk0z0vQlIkpxJkpL6pYzVzwwmxz+/+fYnT/c9CgDgtRCiAQBIkizOT8/ULu9NLT9RS94WD7aGteXrH93OXYnTleSJlHpocPn4f9p869GTfc8DAHglQjQAwAa2OD89U5N/kiSp+VCtZVffm4ALU5LDKfVQGZTfSZLJfU+d6HsTAMC3EqIBADagxbmp2VrKDeIzjJTHk6SkPlTGyucFaQBgLfHtlgAAAAAANOVENADABrI4NzXbZfCB0uWGWjLT9x6gmcdL6kNlUB+Z3H/8mb7HAAAI0QAAI27xwJW7kqTr8pMCNGw4j5dSf3nwhrHPbr79ydN9jwEANi4hGgBgRC0dnNnevbDy4Zr8+LlXymzfm4BeLCc5XJJPjb35ss8nyWW3HFnuexQAsLEI0QAAI2bpvqu2dYsr12c4uKMmu/veA6wZXZLfS5IyVu8fu3zzFwVpAOBSEaIBAEbE2Qd3bxl+5fS7ay23JNmbmqT0vQpYU77+8a9kuaR+tqQenLz7+ON9zwIARp8QDQAwAhbmp/eUN67c0T03cX3GvL8DXqOaZzPIrwzSPTR51/Ejfc8BAEaXEA0AsE4tzk/P1C4fTZJay/uT7HACGnh96pGSPDDYOvbvksSDDQGA1SZEAwCsM2cf3L1l+MzpD6eWW2vJTJK4hgNYDSX10STJWO7dsu/YF/reAwCMjkHfAwAAAAAAGG1ORAMArCML89N70uVATdkThwqAds6U1F8vpX7S3dEAwGoQogEA1oHFA1fu6rr68dRyU5Ktfe8BNoaSPJ3UewdvGv/3m289erLvPQDA+iVEAwCsUUv3XbWt+9rwx5Kk1tyWlNm+NwEb0Lk76L84KN29k3cd/2LfcwCA9UmIBgBYg5YeumLP8KnLbkvNe5N4ECGwFpwpqQ8mSRkrvzC576kTfQ8CANYPIRoAYA1ZOjizvfvqyk+l5kO1K7sEaGCNerwkn9py91OP9D0EAFgfhGgAgDVicW5qb63lrlrLtelKMuZ9GrBGnbuuY7mkfraMlbucjgYAXo0QDQDQo6WDM9uTZHhqeEdqPhYPIgTWnXqkpHzC6WgA4JUM+h4AAAAAAMBocyIaAKAni3NTe7s6+OT5L6/uew/ARehK6q+WsTLnmg4A4OUI0QAAl9ji/NTOmnJz7cqdcRUHMFLOXdORJK7qAABeSogGALiEFuan96TLgZpy7fmHfQGMmi5JUuq/GQzKvU5IAwCJEA0AcMks3DP9saR8vCZX9L0FoLnaJWXw+KB0Pzt51/Ev9j0HAOiXEA0A0Nji/PRM15V7k1wfD4sGNpKalFJPJrl37M2bf/6yW44s9z0JAOiHEA0A0MjC3PT1SZKufKqWzPS9B6BHXUn9nVLqHZN3HT/S9xgA4NITogEAVtnSwZntw1PDO1LzL8+/NNH3JoC1oJR6IslPJ8mWu459vu89AMCl41tDAQAAAABoyoloAIBV9OLnv/udK3/+9Ce6k5uuT+l7DcCadO6e6JJ/PfaGwb2bb3/ydN+DAID2hGgAgFWycM+VN6TmQE1mRGiAV1dSv1AG+dnJ/ccO970FAGhLiAYAuEhnD81OrJw8+4nUfCw1W0VogNeoJiU5mkG9053RADDahGgAgNdpcX56Jkm6rtyb5L197wFYl2qSkjMldW589nvvm7jh4ZW+JwEAq0+IBgB4HRbnpvZ2tRw891WZ7XsPwAjoSqmPlFJvS5LJ/cef6XsQALB6hGgAgAuw/Mj7xlf+5L//s9R8sqZs73sPwKgpyWPnfu5unbz7+ON97wEAVocQDQDwGi3dd9W27szwEzXl9r63AIy6UuqJJD/t7mgAGA1CNADAa7B44Mpd3TD3x13QAJfSmZI6t+XuYz/X9xAA4OIM+h4AAAAAAMBocyIaAOBVLMxP78kbhg/UU5vekTHvnQAusa6k/urgTeMf33zr0ZN9jwEAXh8hGgDgFSzMTV+fWg7VmitS+l4DsHGV1C+UsfLRyX1Pneh7CwBw4YRoAICXsTA3fXOS1Fo+nWRr33sASJI8Pkj30cm7jz/e9xAA4MII0QAAL3H2wd1bVr7yF/tS8zPnX/JMDYA1pJR6IoN8NEm27Dv2hb73AACvjRANAHDe0sGZ7d0LK/fXWm5yDQfAGlbzbJKU8e7OLfuO/1rfcwCAVydEAwAkWTxw5a46rA/UlOv63gLAa7ZcUu/acvexn+t7CADwyoRoAGDDW5ybmq21/FJNubbvLQBcsK6k/vzYmzf/7GW3HFnuewwA8PLceQgAAAAAQFNORAMAG9rC/PSedOVQrdntXmiAdaompdRfGWwdu2Pz7U+e7nsOAPDthGgAYENanJvamyQ15TO1ll197wHg4pVSPzu4fPyWzbcePdn3FgDgmwnRAMCGs3Bg+roMyy8nSU2u6HsPAKunpH6hDOqHkmRy//Fn+t4DAJwjRAMAG8rCPVfekNQHasr2vrcA0EZJfTRJyiAfmtx/7GjfewAAIRoA2EAWDkzdVIeDQ0m29r0FgPZK8lgp3Y9P3nX8SN9bAGCjG/Q9AADgUliYm75ZhAbYWGpyTVcHDy3OT+/uewsAbHRORAMAI29hbvrmWsunI0IDbEglOVwG9QOT+48d7nsLAGxUTkQDACNt4Z7pj9VaDkaEBtiwarK7dsXJaADokRANAAAAAEBTruYAAEbSwtz0zUly/jT0RN97AFgL6pHBIDe6ogMALj0hGgAYOefvhD54/ksRGoBvKMnhUrobJ+86fqTvLQCwkQjRAMBIeUmEFqABeFlfj9FJIkgDwKUhRAMAI2PhwNRNdTg4FA8mBODVPZ4kg0F93+T+Y0f7HgMAo06IBgBGwsI9V95Qk89EhAbgApTUR8tY+cDkvqdO9L0FAEbZoO8BAAAXa2Fu+vpaczAiNAAXqKZc2w3zmcX5qZ19bwGAUSZEAwDr2uLc1N7UciglO/reAsC6tbd25TNLB2e29z0EAEaVEA0AAAAAQFNCNACwbq18bs81tRs8UJMr+t4CwPpWU67rTq0cWrrvqm19bwGAUeRhhQDAurM4P707Seobhv+hntr0jox5PwPAKlguGfyVsw8ONr35tstuPrzQ9xwAGCXjfQ8AALgQiweu3NV15TNJEhEagNU0UdM9P/HhrvzFc5cl+/qeAwCjxIloAGDdWDo4s717YeWhmnJd31sAGFE1SUlXUm9Lki13H/vFvicBwCgQogGAdeHsg7u3DJ85/UCt5aaUvtcAsAEsJ0lJPrDl7qce6XsMAKx3HlYIAKwLw2dOz9WI0ABcMhNJJmrNwcW5qb19jwGA9c6JaABgzVu4Z/pjNeX++Et0AHpQao6WsfqPJvcfO9z3FgBYr3yYAwAAAACgKSeiAYA1bWFu+vpay0NJtva9BYCNqySPlbHcOLnvqRN9bwGA9ciJaABgzVqYn95Tu/JLEaEB6FlNrumGuX/p4Mz2vrcAwHo03vcAAIBvtfLr3/v2JMkbhg/k9PiOvvcAQJJkWN7bvbByLMkdfU8BgPXG1RwAwJqydN9V27ozw4eTpNZyXUrfiwDgJWpSSv3pLXcf+8W+pwDAeiJEAwBrxtlDsxMrJ5fuTy3/vO8tAPAKzpSxemOSbNl37At9jwGA9cAd0QDAmjF8fukjqeUjfe8AgFexNV0eSJcHFuemZvseAwDrgRPRAMCasDg3tberg8/FgwkBWEdK6qNlUG+c3H/8mb63AMBa5kQ0ANC7xbmp2a6WgxGhAVhnasq1tSv39r0DANY6IRoAAAAAgKaEaACgV2cf3L2l1vLppLhjE4B1qabctHDP9Mf63gEAa5kQDQD0avjM6bmacl3fOwDgYtRa9i3OTe3tewcArFUeVggA9GbhwNRNdTj4t/GX4wCMhHpkMFb+/uS+p070vQQA1hof+gCAXizeM3V1hoNPxvsRAEZGme2Guf/sodmJvpcAwFoz3vcAAGBjWZyf2pkkNeXTNbmi7z0AsKpq3jt8YelnktzT9xQAWEucQAIALqnalTtrV+6sKdf2vQUAVl059/+6hQPTnn8AAC/hjmgA4JJZuOfKG2ry8Pkv/YU4AKNpWFIuf/GJienpH06S8ff8/rG+JwFA33wABAAAAACgKSeiAYBLYnF+eqbr8l+SMtv3FgBorial1F9LkrE3b/6Jy245stz3JADok4cVAgDNnT00O1G7/IIIDcCGUZKa8v4kGT6/9D+T/GLfkwCgT67mAACaGz6/9C9qLR7aBMBGM0gyqLXse/Hz3/3OvscAQJ9czQEANLUwP70nXX6jpmzvewsA9GK5ZLBz+Yulbr5x861HT/Y9BwD64EQ0ANDM0sGZ7enKp0RoADa0iZru+U17u6+u/FTfUwCgL0I0ANBM98LKvjos1/S9AwB6V5LalTsX56b29j0FAPogRAMATSwcmL4uyQf73gEAa8jWrg4+uXRwxncKAbDhCNEAAAAAADQ13vcAAGC0LM5P7UyS2g3+VWq2Z8yDkQHgJa4enlqZS3JL30MA4FJyIhoAWFW1K3fWrtyZ5OqUvtcAwBpUy4fPX2EFABtGqdUpJQBgdSzOTe3t6uQWmHMAACAASURBVOC3z3850fceAFiTalJKHitjuTFJJvc9daLvSQDQmhPRAMCqWLrvqm1dHXwy5wK0CA0A30lJas01XZef7Lr8ZN9zAOBSEKIBgFUx/Fr38SRX970DANaLUutHSq0fWZif3tP3FgBozdUcAMBFW5if3pMuv1FTtve9BQDWm5L66GDr2A9vvv3J031vAYBWnIgGAC7K0n1Xbatd+YQIDQCvT025tjsz/EjfOwCgJSEaALgo3ZnhB5P8QN87AGCd+/ji/PTuvkcAQCtCNAAAAAAATQnRAMDrtjg3NZtabo33FABwUWrK9q4rn+h7BwC04kMjAPC6dSm31pKZvncAwIj4oYUDUzf1PQIAWhCiAYDXZXFuam9q+XDfOwBgZAzLRLZ0dy7OT+3sewoArLbxvgcAAOvL0n1XbUuSWstdSSb63gMAI2Ospp7a9I6MdXcmuaPvOQCwmpyIBgAuSHdm+MHuzPCDNeXavrcAwMgZq6m1vH/xnqmr+54CAKup1Fr73gAArBOLB67cVbv6+0lSa9nV9x4AGFUl9dfGdm776GU3H17oewsArAYnogGA16zr6sfrymBXXRmI0ADQUE15//Arp9/d9w4AWC1CNAAAAAAATbmaAwB4TRbmp/fUYfnPKdnR9xYA2AhK6qODN42/J0k233r0ZN97AOBijPc9AABY+84emp2oXblNhAaAS6cuD64tWxf/8fkvH+x7DwBcDCeiAYBXdfbhndev/N/Jh5Js7XsLAGwkpeZokpSx7u9M7j/+TN97AOD1ckc0APCKlg7ObO+eH78ly0WEBoBLrJbM1JKZrg5u7XsLAFwMIRoAeEXd6Rd/qDu56Qcy4buoAKAvpeaDi/PTu/veAQCvlxANAHxHi/NTOzMcfDTVewYA6FNNrqhdnIoGYN3yoRIA+I5qLT9Sk2tS+l4CANRafmTpoSv29L0DAF4PIRoAAAAAgKaEaADgZS3OT+2sNbf1vQMAOK8rO+rp8oHlR9433vcUALhQQjTA/2fvzuPsqus8/78/55x7ayEboQhFElIFCbECGDGGyJIFArSBdgHkx2IrLo309IBOu6AzI2qb5dEP20eH6V860/NjmuHn8OhB0E6gtbXtBbsVbUV/iEhjhIiAEBLMvtytzjmf3x+3KhQhgSx161t17+v5eBR1782tc96nSKqSd33v5wvgoDy3GyTrC50DAAAMiF2+rXB19ssfXBg6CgAAR4oiGgAAvEp5ZU+3TDeHzgEAAF7JZZNd9vvVO+Z2hs4CAMCRoIgGAACvknv0EXebEToHAAB4NXe7Kt+y6/zQOQAAOBLm7qEzAACAUaK8sneWJHlm33LTrNB5AADAQbgk07rkhLbr227eUAsdBwCAw8EGBwAAYD+X3iNJlNAAAIxiJkm6It9eXizpn0LHAQDgcFBEAwAASVJ51akzlNn7JA3+AxcAAIxWrshlHxNFNABgjKCIBgAAkiTP/Do3YyU0AABjgUkuu6S8oucSSer47LMU0gCAUY3NCgEAAAAAAAAADcWKaAAAUB/LIfu90DkAAMARKeYe/eHAbVZEAwBGNVZEAwAAee7LXJobOgcAADgyJr/Q5BeWVvYuDJ0FAIDXQhENAECLK6/s6ZbbB0PnAAAAR85lk102Wbk+HDoLAACvhSIaAIAW53m02F3nhs4BAACOhV1SXt4zP3QKAAAOhSIaAIAWVr1jbqdLH5aFTgIAAI6FS1Nzi64MnQMAgEMxdw+dAQDQQiqrZ07wUtop1yQ36zL3dknyyIrKbJzivF25tcvVfpAPH3ysIlNFkVeURRVJknlNkWpy7TZpt8x2yvNaNGXi7rabHiuFvu7Rqryi55Lco2+LH04DADDmmWujxX5Zx23PbAydBQCAAyWhAwAAmk95ZU+3ck13RafVH/FeSSe5rNfkXa6oU/Jx5jbBB8plz6woqagsKh7WSVxSZpKU1+9bapnvlazirpJMJSkqpZv37M2W926qP8WeN/ddin2z3J42+caO257dHPrzFVLu0R+KEhoAgKbg/TYrml57p6TVobMAAHAg/uEJAAAAAAAAAGgoRnMAAI5aZfXMCZKUl7K5cp0h1xtcNtdcvTJ1ujRh4KnjQmc9QE2unSbtdtNOkz8x8Pi/x6dXnsx/1f54K7yktby8Z36u6Dsaff9/AADA0aiZ7IT+x21fdGmrv+oLADD6MJoDAHBYavddn+Rbfjwh35WeoVzzXLbEXHMlyc26JXVq4JU2Pvo3vivKNMWlKZLkssEd5vP0qY7UpK37lp+6SeYPW+Q/skxP2LjkSUmKpi8oFa+5Jw19AcMhN/ugnBIaAICmUXT5nuQsSYsl3Rc6DgAAQ7EiGgBwUNU75nbmL+2eKknRzMpZ2VPtv+vSQslmq5VGO7kk015JGyQpOqH2iG8r/rNZ/pgdl2xq//ivdoeOeDTKq06d4bl/z91mhM4CAACGl8m/GZ/QfmXbzRtqobMAADCIIhoA8Arllb1z3XWupIsknS9JnkYzFLf494tsyDLv2CXXSzI9ZPIfKdIPTL5RksbKy2BLy3s/5bIVkg5vc0gAADCW1OJTqxe3v2/TQ6GDAAAwiCIaAKDyip4+ly3WQPn8qlWy9VXBONDLn5e9Jn9EktzsoUj5d6KTJv6g7abHSqEjHmj/XO+92dcH/p8DAIBmk5miKdU7Om5+4Q9CRwEAYBBFNAC0qPKKnkskyd2ulduFbjpNrojCeRi4XjLzDYr0z5b7Nzs+9+xPQkcaVFrVe7kkeWbrxWpoAACal+ulKNE5HZ/59XOhowAAILFZIQC0lOyBBd3Vn710jaR3S3aWJLls8v7ymRJ6eJimuGyKci2W7A9Ky3sfVez3SlLUkdwfdK50pmsHblFCAwDQzExTPPPrJP1p6CgAAEisiAaAllBe2TvLpffI9fvuNl2ttNng6JHX3/mTFukec78vmtzx9EhuIjQw//vrksQmhQAAND+Tfhh3j79YkkbjyDAAQGuhiAAAAAAAAAAANBQrogGgSZVX9s6VJM/1fsmuc2lq6Ex4mcm3S1qnSF+Op0x4ZCRWKZWW937U3f58IAAAAGh+ey32ayWp8zPPfDN0GABAa6OIBoAmU17ZO7dePusD0sAMaIxmNTNfJ+ne6Lj4QUlqxAzpyuqZE/K92dc9ixZLkmK+/wMA0PQyUzSleockddz8wh+EjgMAaG0U0QDQJPYX0Karmf87JuUm//v6Tfty0nfuuuI196TDdfDK3VMXZr9u+1f5wFguVkQDANASzLVRkizK39Hx2Wc3hM4DAGhdSegAAIBjU1kza3K+K71Fmb3PTbPEzxfHqshllw/cXty/4YcfTlf0ru387DP3D8fB818Xr5QrooAGAKC1uOm0gRu/I4kiGgAQDCuiAWAMK63quUFZ9AmX5srFKtfms9fk31WkP+m87ZmHjvYg5ZU93e72I1bKAwDQukz+zWhcfH0jRoABAHA4WBENAGNMeXnPfJd9QZJc0TJGLTS1cS67XLkWl5b3fqV41slfkqTkqn978kgO4qbf8Uo0Q0V++AwAQMsZ+PbvZovzUjZX0lH/cBsAgGNBEQ0AY0T2wILu/q0vvCf34qdlmrL/FyigW8E4l91Ye3zz5ZJUe7z3zy3y/91x27ObD+eDbUJ2pdfi0NcAAABCePnviuMkLRVFNAAgkCh0AAAAAAAAAABAc2NGNACMAaVVvZcr06ddtphZ0C1s8Fu2SSb9UNLtnZ/79X2v9SHllb2z8sy+/4pV9AAAoFX9JD4+flv7RzZuDx0EANB6WBENAKNYZfXMCaWVvZ9Tprs9iyihW51p//9/l8516e7S8t4v99+/4OxDfYjnupwSGgAADJjnO/vnhQ4BAGhNzIgGgFGotLJ3oSQp1yqXLZYkxbyCBa9SdLcb+n/+0oX9j/X+WXxC+/9ou3lDbegTXPaO0CEBAMCoEeWyKyX9U+ggAIDWw2gOABhlSst7P+pun5EkVrLisGQmxZ5Luj+K/AuS1HHbM4+Vl/fMd0UPuDQ1dEQAADA6mGtjNDl+K+M5AAAjjSIaAEaJ8qpTZ3jmn3XZjaGzYOwyadPAzY8p8j7P7fNiFBcAABhUMyVnlq5su37z/aGjAABaC6M5AGAUGFi5usZl54bOgrFtyOrnu5VbTZTQAABgqFjKt8eXSaKIBgCMKP5xCgCBVe+adlPu0d+5RAmN4VSUNC50CAAAMPr49sKyyppZk0PnAAC0FopoAAAAAAAAAEBDMZoDAAKoru0rSlK6vfp5efGTMhVDZwIAAEALiF3u1p3vyC6RdF/oOACA1kERDQAjrLyyp9vdbpck5XadJMlCpwIAAEALKUp+qSiiAQAjyNw9dAYAaBnlVafO8Mzvdtni0FkAAADQynxDFPlFHbc9uzl0EgBAa2BGNACMkPLK3rl5pr+hhAYAAEB4Nt3d2CwbADBiKKIBYASUVvYuzHPdK2l+6CwAAACApHFyLQodAgDQOiiiAaDBSqt6L1du90rWFzoLAAAAMMT8yuqZE0KHAAC0BopoAGig0qrey5XZ/3RpaugsAAAAwH4uuVufTizPDR0FANAaKKIBoEFKK3qvUKa7KaEBAAAwKvXbFNVsQegYAIDWQBENAAAAAAAAAGgoc/fQGQCgqZRW9V4uSfXV0DY5dB4AAADgNaxLuse/T5LabnqsFDoMAKB5JaEDAEAzKa/oucTz6C5JkokSGgAAAKOauebmW3bNGLi7IXQeAEDzoogGgGFSWtm7ULI7ZZoSOgsAAABwONx0mmR9A3cpogEADcOMaAAYBuXlPfOV2V3uNuPYjwYAAACMmMhl57jsnNBBAADNjSIaAI5Ruu682a7oTjfNCp0FAAAAOCKey9wXmvvCyppZjJYDADQMozkA4BiUV/Z0a1K21mvFuSqy+SsAAADGGIvk0jxJ8l3pdEnbQ0cCADQnVkQDwFGq3jG303P7Yr6tcAklNAAAAMYsz8fJ83FufnboKACA5kURDQAAAAAAAABoKIpoADhK6ZY9n3HZDbLQSQAAAIBj57m9NXQGAEDzMndeTg4AR6K0qucGSfIsukv8QA8AAADN4ydJ9/glbTc9VgodBADQfNisEACOQGll70LPoi9JkowSGgAAAE1lbr5l1wxJG0IHAQA0H0oUADhM5ZW9s5TbWpmmyDQldB4AAABgmBVdtjh0CABAc6KIBoDDUF3bV3TXCpfmhs4CAAAANIzrgtARAADNiSIaAA5Dtq3yR57bdaFzAAAAAI1ls6tr+4qhUwAAmg9FNAC8jtLK3oXu9glZ6CQAAABAY7nrtHx7+bTQOQAAzYciGgAAAAAAAADQUBTRAPAayit7uj2326WczQkBAADQ/EyTPDJWRAMAhh1FNAC8Bs/tVknzZXy5BAAAQAuolYrFc992raRJoaMAAJoLzQoAHEJpRe8VLrsldA4AAABgxESR+v/9iRuyTY99W9JtKr14VuhIAIDmYO4eOgMAjDrllT3deW7fkawvdBYAAABgxOSplNZUfNtnVVh0iyS9JOkfBn71XkkPSdoZOiYAYOxhRTQAHITntoISGgAAAC0piqQ4Gbw3RdJ7Jb1Xnn9d0nc0sFK6dt/1ydGeAgDQelgRDQBDlFb1Xi5Jntm9ksaFzgMAAACMqKwmKx6ntuv+SvHMxa/1zMGV0oOrpCVWSgMAXgM/vQSAAZU1syYr06cH7lJCAwAAoPVkqezE2YqnzX29Z768Ulr6l4HH/lnSNyU9EvoyAACjD0U0AAzId6Q3umxh6BwAAABAEJ5LkqITeqX2SUfykRcOef8R1VdKf33g/Wuukq6snjnBxh2XHlXe/loqSXbim/PiNfcc3TEAACOGGdEAAAAAAAAAgIZiRjQASCqv7J3ruX3LpamhswAAAABBeC5lNbVdvlLJub9/bMfK+qW48LCkr6v04v3qPPnxwV9K1y/qlcc3y/J5yq141OeIvPZydqtJXhryi3slSbF2e+Y7LfY9lvtWSfIsLylKXvKovN28badF1Uq6pbK77abHSkcWAABwJCiiAbS86tq+YratstZlN4bOAgAAAAST1WTjp6jjA1+Tdc0cziMPbmyo7NHbf5H/+v73WZ73ucUjd22uVKba0IdsoLh201bLtVemrZK9tD9z7M+qP93qSf+GyLS5/1fbStH0BSVJYhQIABw5imgALa+0sneh5/bPko5+NQYAAAAw1lX3KJl3ndre/RfDe1zPlT99vyQp//l/l6dlKSqEvtojyK/UzHe6aau5PyFJiqNNkv9SWf6MlD5pcba7/1fbSu0f/9Xu0HEBYLSiiAbQ0gZWQ6932eWhswAAAABBZTW1/97/q3j2pcN4zH7lv/qqsp+tefmxuC30lR67wSrFJJNvrZfUekayx82yX0iSe/SMVHs+feG3W9s/snF76MgAEBpFNICWVlp+6jUu3Rs6BwAAABBMrT4aOTr5THV8+AGpOH7YDu3PP6j0B/9ZGhzD0Qwl9OEryfw5k29SFD1hefZT9+gZWf60JOX9059nxAeAVpKEDgAAoVTvmNvp0q2hcwAAAABB5f2SpOSsdwxrCS3PlT/3j1JWk9omhb7KEDrl1ueyPmVa6opl8q3Ko2ckKUpeeK5/3ZInLE//XVH+SHLVvz0ZOjAANBJFNICWlW3Z/V7J5ofOAQAAAASTVmQTpkqS4r5lw3vs8g75jl9IheNCX+Wo4bIumbrq92y+pKs8KpRM2pquX7zR3X5gyn8kSRZXfxK/6+HNoTMDwHCJQgcAAAAAAAAAADQ3VkQDaEmVNbMmu9uHQ+cAAAAAgqrtU3zWOyVJ0Qm9w3po3/4zqbJNskLoqxztOl2aIY9mSFrqikuS5HnHc75u8ROK7Tvu5Yeyp7c93f7xX+0OHRYAjhZFNICWlO9I3yvZ3NA5AAAAgGDyVIqLit/wO/X7ScewHt63PS7PqlLSGfpKx5r6J+zl+dJXSZ2lpKfjkXTdhT+U/FsWl5+QpKw6cysbHgIYK8zdQ2cAgBFTWT1zgiTle/Nvu3Ru6DwAAABAMJVdirrPVPv775Ek2cTpw3fstKz0X2+W7/ilFLEietiZb5Aki+yf1N//fTY7BDAWsCIaQEvJy+kVkuSK5oXOAgAAAASVp4pnX7x/s8Lh5Luflu96WmaRWP7WAG59kuSZ+hQVbpH5huzeC/7FY/0rpTSA0YoiGkDLqKyeOUGZXTtwtxg6DwAAABBMWpGN71Z8+lLJomE/vG/+oZRV5XFb6CttDW59eaHQJ9eNMt+YrrvwYUlS3v8tK/T/S/yuhzeHjggAFNEAWobvSxe4oktC5wAAAACCcklpVdFpixT3nNOA4+fynRslz0JfaesxJfXZ0uqTJEWFqz1PnvMHLvwn5elfJ1c+9MPQEQG0LopoAC2hurav6G7vEyuhAQAA0Oo8laKC4tlLh32DQkny3ZvkO34hWRz6SiF1yq3PM/VJyYfSv1nyiBLdqzz/hiTl/dOfZ7NDACNl+F9/AwAAAAAAAADAEBTRAFpCvr18mrstC50DAAAACC5PZZOmKpl9aWOOv/PnUmVbQ2ZP45h0utlCz2yNPPqxPPpx1Pbi7em6JUsra2ZNDh0OQPPjuwKAluBm18g0JXQOAAAAILg8VzxjgaxrZmMOv/VReVqSrBD6SnEI7tblbl2e6RZ3+3YyfepXs/WLPpSuO2926GwAmhczogE0vcqaWZM91/WhcwAAAADBeS4V2pWc9c7GHL+0Tb7zqfp8aAt9sTgke8XtxPNoqZuWyqIN6boLvyFL/4aNDQEMN4poAE0v35FdIrc+/iIMAACAlpfVFE2dW9+osAF81y+lPc+xUeFYM/hvJbc+l/rM4w+k6y78Zv3B7Kt5Ov3v2dQQwLFiNAeApufStZTQAAAAgKSsX8nsS6SkoyGH9x2/kFd3SHFb6CvFMXBZl0s3uHSDFN0VFV74dvq1C66rru0rhs4GYOyiiAbQ1MorevrkWhg6BwAAABBcnso6Jys+8+2NOX5alm/7uZRnoa8Uw8hlXe7RUrfC3XH3Sd/P1i/6EJsbAjgajOYA0NTc7Z0ydYXOAQAAAARX26do1hJFXbMac/x9L8h3PinFLJptSqbEZfPd4zuTqdP+MFu/6C8lSVH1m/G7Ht4cOh6A0Y8iGkDTqt13fSLpd8WrPwAAANDqPJcsUvLGK6W40JhT7HxKXt4qi9vkoa8XDeVWL6QlydKOn6QPLPmyqfw1CmkAr4VyBgAAAAAAAADQUBTRAJpWtuEHZ7tbX+gcAAAAQHC1fYpOmqP4tPOH/9hZv5T1K9/6qJTV5BaHvlqMIDeb75mt8bTjq9n6RR+qrJ45IXQmAKMTRTSApuWypcyHBgAAACRlNcWzL5aNO2n4j13dLVV3y7f+jPnQLczNFuYe35n0TP+7bP2iD1XX9vGbAcArMCMaQFOq3jG3U9IS8QM3AAAAtLK0Un/feYKSvrdJNvx/PfZ9z9bf7/mNlHSGvmIE5mYL3eN58dQpv5euW3S7JCVXfe8boXMBCI8iGkBTyjfvOkNmZ7FLCgAAAFpabZ8kKT5tkaLuOQ05hf/2p/Ubeb8UNWYjRIw5nZ5HSyUtlqR03eK/9aiywmszHy9ec08aOhyAMFgpCKApudk8d5sROgcAAAAQTJ7WR2XERcWzl0rtk4b/HFm/fMuP5Vt+HPpqMdqYJFMiU+KKrrK84x+j5MU/Sdcv6g0dDUAYrIgG0FT2zyFzXaDMpJgl0QAAAGhRaU12/CmSpHjmksacY++z8l0b67dZDY3X4LIuSZ+UorenDyxZmz73wv9p/8jG7aFzARg5FNEAmkq+s9otSRqfzdO2SGLDbgAAALQqzxSfeoEkKZryhoacIt/6mLy2u36H+dA4HG59nmlNMn3qlcyQBloLozkAAAAAAAAAAA3FimgAzSXPZ0uS70nOUIGxHAAAAGhReSq1jVcy57L6fWvMOjTf8mPJeBkijpx7tFTSuZKUfvv6v4/nfep7duKbvyvpkdDZADQGRTSApuJu8+o38qhRf9kGAAAARr20pmj6GYp7z23cOfa9JN/z64aV3GgJ9Xkue5+/Knvki1fFfTc8YSe++Vp1nvx46GAAhh9FNICmUb1jbqdMb67f4y/DAAAAaG3xzMVS5wkNO77veFy+b7NsoIjm9Yg4Wm6xtOc3yn7yJ2cosj93q3yicMXDj4bOBWB4UUQDaBr5S7smSHZ+6BwAAABAUHkq65io5My3N/Q0vu1xKS3JYzYpxDCICvUfZuRaatbxj+kDi7+UPrfprySp/SMbt4eOB+DYsWQQQNNw2Sx3m+5u00NnAQAAAIJJa4p6Fig6+Y0NPEdZ+daBBas28AYMB5Nc1uVZ9MVk2rS/TqZN++t03ZKloWMBOHYU0QCaR655qn9d42sbAAAAWpNLiiIlb7yyobObfccvpD3PSVEh9BWjiblsmcuWSbq3f92SFZXVMyeEzgTg6FHWAGgmbwkdAAAAAAgqqyg6foaS0y9s6Gl8xwZ5bff++dBAI7msS7Lbkp7pf1e5e+rC0HkAHB2+YwBoCpXVMye47IzQOQAAAICgavsUz7msoZsUKuuXb/255Fl9kzlghLjZwuS409enDyz+VPWOuQwnB8YYimgAAAAAAAAAQENRRANoCl7OJ5n8tNA5AAAAgGCyfqnjeCV9b2voaXzvFvmeX0ushkYAgxsZxl2T7k7XnTc7dB4Ah48iGkBzyPPZLpsUOgYAAAAQTHW34unzFHXPaex59jwp3/MbNipEUK7oKqntH9OvXXBd+rULrgudB8DrS0IHAIDh4G7zxA/XAAAA0Ko8lyQlZ75dam/g+gzP5dsel/r3SW2sA0FYLs2QFe6WpHTdhW+xuPRn8bse3hw6F4CDo7QB0CzODB0AAAAACKa2T9Y1U9Gp5zf2POUdyrc+KkWM5cAoYUpkSlz6pOftf52uX3hu6EgADo4iGkBTcNnU0BkAAACAEef5/rdk1kWKpryhsafb96x819NSVAx95cCruEdL5cm92fpFHwqdBcCrUUQDGPMqa2ZNNmlK6BwAAADAiMvT+lvbeMWzL5assf/M9x0bpOpOKW4LfeXAQbk0I/d4Tbruwi9VVs+cEDoPgJdRRAMY83xXOllSV+gcAAAAwIhLq1JaVXRSn+Kecxp7rqxfvuVhxnJgLOh06ZNJ7/R703XnzU7XnTc7dCAAFNEAAAAAAAAAgAajiAYw5llPrVvydnnoJAAAAMAI8lyyWLJY8czF0nENnlZX2SHf+STzoTFmuGyZW/EBt+ID6bolS0PnAVodRTSAMS9/rnCay8bJQicBAAAARlCeysadKBt3opK+tzX8dL71/5NXdkgR86Exhrj1ya1PEpsYAoFRRAMY+9x6JbEsAwAAAK0lSxVNP7v+NvVNDT9dvvVRKa+JBSAYi1zWlefx/8MmhkA4FNEAxr5cM0NHAAAAAEaU51IUKZlzuZI5l0txoXHnqu2RanvkW38mxe2hrxw4eqakvonhtLvS9Yt6Q8cBWg1FNIBm0BU6AAAAADCi8lTR8TMUz75I8eyLGnoq3/VU/W3fZilqYOENjBBXdJXy6O7++xecHToL0EooogGMadW1fUXJJofOAQAAAIyotKp41kWy8SfLxp/c0FP5pofkmx6S0lLoqwaGjZsttLyTTQyBEZSEDgAAxyLfUZ4sRZ2hcwAAAAAjxnOp0KHkje9q/Lmyfvn2J+q3LQ595cCwcmmGSfemX7vgI5KUXP39r4TOBDQzVkQDAAAAAAAAABqKIhrAGGfj5GJFNAAAAFpHbZ/iU+YrmnpW48+191n53ufke5+TjAoBzcdlXR4V7vSocGf6wJJbQucBmhnfRQCMdZ2KvBg6BAAAADAiPJc8V3Lm26Xi+IafLt/6mLy6S17dJaOIRvPqlNTpmX2xf92SFbX7rmeULdAAfBcBMLblXpQbf0kAAABAa+ivyCb3KJ51UBp5agAAIABJREFU4Yiczrf8WMr7pbxfzoxoNL9OyW6L2l68vXrHXF55CwwzimgAY5pH1h46AwAAADBi0rKSWRfJjp/R8FP5rufle35d36SQEhotxDPdEndN/svKmlmTQ2cBmglFNAAAAAAAY0FakYrHKZ59sRQXGn++PU/K922uz4ZmLAdaTZTckEyb+j+zBxZ0h44CNAtezg4AAAAAwFiQVhX1nq+455wROZ1ve1xKS1LChAK0Hs9TSdFVyjo6swcWfFCS4nc9vDl0LmAs40eaAMY0y70SOgMAAADQcHkqRQUlZ71dOm5K48+XluXbn5A8C33lQFAuW+Zpx1c97fhqun5Rb+g8wFhGEQ0AAAAAwGiX1hSd0Ktk9qUjcjrf/bR873NSVAx95UBwbrbQzRYqj+5O1503O3QeYKyiiAYAAAAAAAAANBRFNICxzzwNHQEAAABoCM8H3jLFsy6Sdc0cmfPueU5e3somhcAQbrZQXvxrVkUDR4fvKADGNtNe5VYLHQMAAABoiDyV8lTWOVnJ2VePzDk9l+98SspqUlQI/RkARhU3my8v3sm8aODIUUQDGNuiqOSsiAYAAECzSqtSWlV8+kWKTpk/Mufs3yff/XToKwdGLTdbKBllNHCEKKIBjGk2Id4r2d7QOQAAAIBh57lUPE4qHqfCgg+M3GnLu+S7n5FiNioEDsU9WirZndkDC7pDZwHGCopoAGNadNI5u01iRTQAAACaT22fktkXK5l9saKet47ceUvPyUtbZHFb6M8AMKq5R0s967gre2BBN4U08PooogGMacVr7kldYkU0AAAAmkue1ldCn/dhFc778IhuGuh7npHymtzi0J8FYNRz2TLP2td61r62smbW5NB5gNGMIhrAmGfyTaEzAAAAAMOqskvJWe9QdMr8kZsNLUlZv3zPs6GvHhhTXNFVruiqZNr026t3zO0MnQcYrSiiAQAAAAAAAAANRRENoBlsDR0AAAAAGDZpRTa+u75BYVyov40UT6XdrIgGjoZLN8QnTf5i7b7rk9BZgNGIIhpAM9giKQ8dAgAAABgWtX1K5l6l6OQzA5y7JK/tlJgPDRwVz3SLJZs+HzoHMBpRRAMY+2LfLCkNHQMAAAA4ZtU9sq6ZSha8X0o6Rv78/Tuk2m4pGsFV2ECzcfvP6QNLbgkdAxhtKKIBjHmWa5OkWugcAAAAwDHJU8lzFea9R9FJc4JE8NJL8uouySiigaNmSjyzL6Zfu+C60FGA0YQiGsDYZ/aSXKXQMQAAAIBj0l9WNO1sJee8N1yG2i4pq0gW+pMBjHmdipI16bolS0MHAUYLimgATcBfMml36BQAAADAUctTKWlTYcH7ZeNPDhbDqztCfyaApuGyLjet7b9/wdmhswCjAUU0gDEvnn3+VplvCp0DAAAAOGr9ZcWnX6Rk3nvC5ihvZaNCYDi59VnWsSZ7YEF39sCC7tBxgJAoogEAAAAAAAAADUURDWDMK15zT+qyraFzAAAAAEcl65d1TlZxyR9JcdhNAj3dF/qzATQdly30rH2tZ+1rq3fM7QydBwglCR0AAIaDyZ9xdlQBAADAWNRfUmHJf1J0yvzQSaQqW68Aw84k9+gqSYq7Jj8t6dbQkYAQWBENoDmYfhk6AgAAAHBEKrukyi5FveercO6HQqepq+5gRjTQCKaBQlp/lK1fNEr+wAMjiyIaQHMwPSEpDx0DAAAAOCxpRWqfKLVPVPHiT0mdJ4ROJEnyvBY6AtDcTIl79MV03ZKloaMAI40iGkBTMLPnJJVC5wAAAABel+dSbZ8K592ownk3Kp65OHQiACPIZV1uWpuuX9QbOgswkiiiATQF64h2mvR06BwAAADA66ruUXTaYhXO/dDoGckxKC1JRlUANJxbnzz6SzYvRCvhuwuAptD+8V/tdmlj6BwAAADAa6qVZMd1qXjxp2TjT5aNPzl0opc5k+6AkeSyZXHX5C+EzgGMFIpoAE3D5M+EzgAAAAAckueSZyos/MPROY7DIinppJAGRpBL/zH92gXXhc4BjASKaAAAAAAAAABAQyWhAwDAsDH9Uh46BAAAAHAItX2K5yxT4YL/EDoJgNGjU1Hhi/33L9ggSYUrHn40dCCgUVgRDaB5mJ6QlA+8AQAAAKNHraSoa6baln1BSjpCpzkki4qhIwAtx6UZlnf8ieUdf1JZM2ty6DxAo7AiGsCoUV3bV/9bb6GY+N59iZfzScrzTrnGyTTJPap/QzafJNckN5to7u2SJkgqumxq6GsAAAAAXiWrScVOFd/2OVnXzNBpXlvb8aETAC3JZcskKZ427WOSPhs6D9AIFNEARlxlzazJvjsbpzzvlDTdZae5rMfcpww8Y6pkk+Xqktlkr99+mdvAe8lloS8HAAAAOLg8rb/vL6u49JOK51wWOtHrS9olz0KnAFqYfTxdt+hHyVXf+0boJMBwo4gG0BDVtX3FfEdlhkvdym2q5L1u6pEkc/W6dJoUTZc0bvBjXlUq2/7/AAAAAGNPZZckKZl3vQrn3SjZ6J+OaayIBkLrlOK15ZW9Gzpue2Zj6DDAcKKIBnDMyit7upVruiS5otPc9Ca5+kw2y13dMnVJFg2uamY/QQAAADS9yi5FvedJkoqX/bFUHB860eHp6GJFNBCYSzMKZ8z4YnVt3/VtN2+ohc4DDBeKaABHrLJ65oS8lM1VrvMlnemKzjCrj9VwV7dcRYnCGQAAAC2qVpJN7lHb766SJNn4k0MnOmzW2R06AgBJruiqePpJN0n6i9BZgOEy+l8XBAAAAAAAAAAY01gRDeB1lVf2zvVcFw7cfYtLC0ya4rJJGviBlucDs5wPHOnMiGcAAAC0kqwmFTtVvPQ2RafMD53myLVNkpLxMs/kFodOA7S2zG5N1y/8SXLlQz8MHQUYDhTRAF6hdt/1SfbkD7rkOsvNzvfc3iFZn6TOgafUi+cDP5DCGQAAAK0uTyXPVbzoE0re9O7QaY5OcYqs2Cmv7pIoooGgXJphHn++smbW77V/ZOP20HmAY0URDUDllb2zJMldZ7l0qdyWSjZbzvgeAAAA4LB4LtX2qbD4oyos/I+h0xw165godXZL5a1SVAgdB2htLrnskmTG1Bsl/WnoOMCxoogGWlR51akzPPd59eJZS+uPWl/oXAAAAMCY47lU3qFk3vUqLv2EZGN4PUfcLus4Se4/C50EQP2Vx4kyu7X//gX/IEmFKx5+NHQs4GiZux/7UQCMCZXVMyfk+7KlA6ueF0iaJzYtBQAAAI6eSypvU9y3TO3X/KXUeULoRMd4Pbnyp76i7Kd/JhXGh04DYIBZ/qAkZZteuqzt5g210HmAo8GKaKDJlVf2znXpCkkaMu95XOhcAAAAwJjmef19dY+i0xar7crVY7+EliSLZON7pajIhoXAKOIeLZWkePqUPxJjOjBGsSIaaEL7Vz67vU+uhTJNCZ0JAAAAaCrVPZKkaOpctV29VtFJc0InGja+50VlP/iYfNfTUtJ57AcEMGxMvtWj8qWM6MBYxEvyAQAAAAAAAAANxYpooImUV506wzO/QrLfd+ks8cMmAAAAYPhV9+xfAd129V8omvqm0ImGV1pW9vBy5c9+S2qbFDoNgAOY8nV5Ou3a4jX3pKGzAEeCGdHAGFZd21fMt5Xn5hZdKUkmf6+7z5BZ6GgAAABAc6rsUnTi6Wq78nZJar4SWpKSDlnXG6Xf/ANzooFRyBUtiwvP3yDpf4XOAhwJVkQDY1B1bV8x21m5RJmulfR2l00OnQkAAABoeqVtik6aU58Jfcr80Gkayn/7iLLvf0rev0+K20LHATCUS4p8gym/LLnye8+EjgMcLl62D4wxpRW9V6Tbqvd4Zve67AZKaAAAAGAEVHbJuma2RAktSXb8HNkJZ0l5LXQUAAcySW59iuJP1O67nmkHGDP4zQqMEaXlp17j0oclO1fSuNB5AAAAgJbgkqoD4zhapISWVB/PcdIC6cUfyDyrfyoY0QGMKp7pQ1Gyab2kB0NnAQ4HozmAUap23/VJ9ssfXJh79OmBhxZLKobOBQAAALSUgY0Jm3JTwteza6PShz4pL22p32dEBzDqmPzvs6073t1202Ol0FmA18OKaGCUqa7tK2Y7Kgs8t49J0dtF+QwAAACMLM+l2j5JUnTKW9R25X9TdNKc0KlG3sRZsu63yn+1PnQSAIfgsmXJiROvExsXYgxgRjQwipRX9s5Nt1du99y+JekqUUIDAAAAI8tzqbxD8WmLFJ+2SO1X//fWLKEHRFOXSEln/S3vDx0HwEHkim6trJnF/lEY9SiiAQAAAAAAAAANxWgOILDyqlNnSFKe6w/M7QPyfKrMQscCAAAAWk+eSpVdSt50tYqXL5ck2cTpoVMFZVPOUdR9niQpf/6fpagQOhKAA+XWl0yb/l8k3Ro6CvBa2KwQCKS6tq+ozj0fyH5TvFmSXJqrzKSYP5MAAADAiMtqUn9ZhQUfUHHZ56T2SaETjRr+20ckSel3Py6xZgYYfVwy860elS+VpMIVDz8aOhJwMKyIBgIorexd6Ll9XtuKizV0DjQlNAAAADDyspokU/GS/6LC4lukpCN0olHFTpwnSYpOuUj5M39XnxcNYPQwyWVdlnd+bOCR94eOBBwMK6KBEVRe2dPtud3qspvkGieJFQUAAABACIP/FO4vyTomqrjsj5XMu04ytlI6pF0blX73o/LKDiluC50GwAFMvrV+K/9gctX3vhE6D3AgimhgBFTX9hWz7ZXL5fYFl+aGzgMAAAC0NM+l6h5JUtR9porLPqd49qWhU40J+ZP/R9lP/0yWdMotDh0HwEGY8nV5Ou3a4jX3pKGzAEMxmgNooPLK3lmS5Lk+7W43svoZAAAACCyrSdU9ivuWSZKKl31B0UlzQqcaM6Led8i3PKz8+Qeltsmh4wA4CFe0LEqeXyaJVdEYVVgRDTRIafmp17j8C/V71hc6DwAAANDyaiVJUuGtH1Tx4lvrj3WeEDrV2LNro9KHPinft4l50cBo5JJF+YPZb3e+o+2mx0qh4wCDGH4FAAAAAAAAAGgoVkQDw6y86tQZnvlnXXaDpGLoPAAAAAAkVffIOier+DufUTLvPVJcCJ1oTPPnH1T2o8/L85SNC4HRxiWLEyktX59c/f2vhI4DDGJFNDCMqvd0X+GZvu5uN4oSGgAAAAgvT6XKLkWnvEXtv/dlJee8nxJ6GNi0CxXN+UD9tmcyz0JHAjDIVP8hkSU3V1bPnBA6DjCIzQqBYVBZPXNCti//tLzjo5LGsSkhAAAAENDgC3/7S1JcUGHBB1S4+FbZ+JNDJ2seFima80F5+SXlv1pffyhuk1scOhmAQXFhYV5Or5D0v0NHASRGcwDHpLyip0+Sco/WyHUJBTQAAAAQWNYvVXdLkmzSDBUv/a9K5l0nGS8Iboi0rOzh5ZKk/Df/IEs6KaOBUcKiRMr6f5Jt27GETQsxGrAiGjhKpeWnXiOPVkmSTLMooQEAAIDAaiXJM8VnvVOSVFx6q6KpbwqdqrklHYrnfXr/3fzZb8mK4ymjgVHA81QWF+YnJ068TtL/Cp0HYEU0cIQqq2dOyPdmn3fZLWIONAAAABCe51J5h2zSDBUu+A8qvPX99ceL40Mnay2Vncp+/MfKn39QVpxIGQ2MEubOqmiMCqyIBo5AeWXvLM/15y67PHQWAAAAAJLSipT1K+5bpuLFn1J0yvzQiVpX+yTF5/yxFHco/80/SAV+EACMBi47O548/p2SvhI6C1obK6KBw1Re0XNJ7rZGsr7QWQAAAICWlqf197V9sglTVbzwY0rOfrfUPil0MkhSbY+yR1crf+bv2MAQGCXM8gezTS9dJkltN2+ohc6D1sRuDQAAAAAAAACAhmI0B3AYqndNuynPiytkmhI6CwAAANCy8lRKa1JckCQlb7xChaW3KjppTuhkGKo4XvG8T8najlf21L31/29xW+hUQEtzj86NTz7xdwbufiN0HrQmRnMAh1C9Y25numXPZyRJqf1XxfxZAQAAAIKp1ffYiqafrcJ5N0mSkrlXSsYLfUctz5U/9RVlj98h9e+pP8bcaCAYU75OkvJ02rXFa+5JQ+dB62FFNHAQlTWzJuc70tslu0GSKKEBAACAQNJKfRb0pBkqLHi/knPeKxt/cuhUOBwWKZr9Hllnt7Kf/d+SJN/9tKw4kbnRQBC2WJKiZNNiSQ+GToPWw4po4ADlFT19uUdrJF0SOgsAAADQsvJUquySOo5X4U3vVrLg/Yqmvil0KhytXRslSdljf6H8+X+RCsdJUSF0KqClWFRfj2rV8v9It277T2xaiJFGEQ0MUV7eM98V3enS3NBZAAAAgJbjuVTbV78dF5TMuUzJgg8o7j1v/1xojHG1Pco33qdsw91SWpKSztCJgJZj8q1S7YLkqn97MnQWtBZGcwADyit6LnGzO901I3QWAAAAoKV4LvVXpChSfNoiSVLhvBsVz1osFZkp3FSK4xXN+aDs+DnKnvgr+bbH6yujWR0NjBiXdVlcuELSn4bOgtbCimhAUmlF7xVyW+vS1NBZAAAAgJaR1aS0KiVtiqa9WYW3flDJmZfXfy3pCJ0OjVbbo/wXdyn/9d/Kqzvqj8XtlNLASDDfkD3/wgXtH9m4PXQUtA62FwYAAAAAAAAANBQrotHySqt6bvAsWitpXOgsAAAAQNOrlerv836pfaLiaWcrmf/e+kpoVkG3JP/tI8qf+mr99osPydMSK6OBBrMokdLy9cnV3/9K6CxoHRTRaFmlVT03SBIlNAAAANBgg5sQZjXZ+G5JUnz6RUrOeidzoFHnef3dC/+i/Kn7lG/9mZTXZEmn3OLQ6YCmZJY/mFz53YtD50DroIhGS6reNe2m9DfFP5MkucbJQicCAAAAmtBgAe25bHKPkje8TfEZ9RnQce95UsyKVxxEZad8y78pf/oB5b99RPKMQhpojJJZenFy5UM/DB0ErSEJHQAYaftL6Mzqq6BjfhgDAAAADJusVn/fX5YKHYp6zlVy1tuVzL5UdsKpkrFVEV5H+yRZz2WKTzpP0dZHlP/6b5Vv+bGUDox1YWwHMFw6rebvl0QRjRHBimi0lNLy3o+67EvKrEgBDQAAAAwDz6U8lbJUkmSTpkqS4lMvUPLGdymecY7UPil0SoxlaVn+258q/80/SpL8tz+V79skWSxZJLOI1dLAUTLpOVm2JLnye8+EzoLmx4potIzqXdNuchW/JBclNAAAAHA0Bub47i+f81yKItmEbkXdZyp5w6WKZ9fHjdrE6aHTolkkHbKTz1d88vmSJN/zovzF78hf+K5873Pyyg7Jq/ViWqKcBo6AS10WRW+X9Behs6D5sSIaLaG0qucGNiUEAAAAjlJWq4/aGJS01cvnrtMVz1yseOYiRVPfFDolWpBv/3f55h/Kt/1cvvuZ+mPl30pZpf4Ei+tjPKwg9gYCDsIlM//77MUt72q7eUMtdBw0N4ZzAQAAAAAAAAAaihXRaHql5ade49KdYjU0AAAAcHiyfimtvDyCo/MERSecqqj7DElSPOMcRdPOVnTyG9l8EKOD59Lup+s3dz5Vf9v+hLy0ub5Cun+fFA0Z1WGxZLEsShjhgZZn8q2y7B3JlQ+xaSEaihnRaFrlFT2XSJJ7tEZGCQ0AAAC8Sp7WC7wsldIhozfaJyrqmik78XTFp7xF0fS3KDq+R3b8KfVfp3zGaGORNHFW/ebEWbKey6TKTqm6Vb7nuXohvefZ+nN3PysvbZb698r790npHkkD888HXzh+YGk99P3Qcw7eHLjtGvpxoT8pwOFxWZc8/l1JFNFoKFZEoymVVvYuVG73SpJLU0PnAQAAAIIY3FxQqpfOWTpwu78+N7fYKSseJxs/RVH3GYqnvVmSZCeeXi+eOydK7ZNCXwUwPLL++vv+ffL+stS/XSptkVd31mdKp+X6ymlJnu6rz0ZPK1JWltd2S2mpfl+S8oFRuln9veepzDO55/U/X5Lk2SvPf2ChfUCRzcpshGTuD1lS/r/idz28OXQWNC9WRKPplFf09CmP7nKjgAYAAGiooSXnaDnWYS+0OYznHW2mfBg/L1K9zDpUQTW06Bp8ThQNbNAWSxbJ4oLUdpxs3BRFE6fVn3r8DEWTTnll4Vw4TooLw5sdGE0Gf3/Hk2TtkySdLE0+85ULlwf/3OcDf7Z88Ic36SuPlWfy6l6ZKvKsKlV31cvsrCoffHXBkHL7wGJbkpRW5HmtXnDXdsuyV+4T5wPn3F9wD2Y7sOCWDv01QnrVKxjsEK9ocMWs4m5hbjZPWccZkiii0TAU0Wgq2QMLut2ju1yaFToLAAAYAa9XFB5ukfia5eWQXzuSYjLP64XgcJeSR+pghUWjHKoIiQ4xxuFVZchAA2L22s89zLEQdqSlalx8+XZSGHKc4ms/d+h5ht6OCgfPMfR+8spjW1yUZ7X6OQ913AOev1+xs/5Y+0RZ52SpY5Js3ImKJk6TdYyXCh31svkIPodAyxn8sxEP/hk59NcRG3i1wIFfsV6zy/X8lSV3ntbv51n963W6u15sS1JWlao7Xy63qzvqjw8W29Krym2v7a4/npYG3lek/r1DTp/KVS+39z82WHJ79TA/Rwf5Wn+oMSUU22NJp0sXSXowdBA0L0ZzoGlUVs+c4IXql/PthSv4ZgcAaLgjKSSHuww9kmMebQn6euXlka4UPXAl2bGIkvrxogPWVBysWLP40KtJowOKTc+HHOMQheiB5zjIOQ9Zfh5YZiaFAz6ueOjnxoX6S8rjwqFXrEZDi9PCyx93MAcpP19xrgPPfajnHixvof21PzYe8v8tGlq0JrID7r/qOZKUtL18vKHnOti1xUOee2Cp+4r7xSHPO8j1Df5ei4f8PhoyP9aiA+fGHvC8ob8+9PetJa8+HgUxgKMxWHBnlYH3AyND0trLq7az6kBpXamPIxlU3fHySJLqjpfHjxxs5fbAfeW1V4wlkUumISu3PXvl3yUGy/colqLiK74+Y/T4/9m79/i4zvre99/fs0YjWYkT45hggnFCMakJaQhg0gDd0owUKJcDhZSEa+kFyqYU2lLasnso5QBJcyjQ7u7AZieHlpYSKNByp1xtyy4NEIIbAgkhCYljm8RxFN+t66znd/5YI1uWZVu2NfPMjD7v12temvv6rZE0s+a7nvV7zP1mK42+UJJo0YFGYEQ0OsL4h1aX8wP5NRovv1hldq4AwFHN52H0sz3f0Z5/tuuPFpAeKwA9Vv3zGXQezVQAOnX+aI4VJB2v/+PUCNpwrMDTpvWXtMNvnz4iabYQcipkKx1521GD0GMFk2Fm0HiUEZylI8O9uYafRwSDhz2uNC0kPFawWzoi9Dz00nbNKfSUjhJ8HmX9Zg1BjxPyHrF+s63/9L+97PCQ88j7Tvt7m74uVjryfgSgANC+LBSjuGd+Fs74qaNcPoLHIriWpNq4lE8cGWpPqYfbB0duz+i3LU0LuMd3Ke66oxjpXVpEIN1i3GyN8u419YtfTl0POg9BNDpC/vDYH0n2OkJoAA0zFYDmE4cmupl+fSPMDIWmljX9+sNGcDaBZTNGkWaHjeI78vDzWcK50nFGV842EnTqZ5gtPD3+oevTQ8IjDnef8bhj1nO8kZ7SkYHn1HWaEXhKJzbS8yijPI/5esz2mswh+DzidZgtdJ8aGTpjJKiFbFqf2tlHjx7xnFY68nZCUQAA0rFQBMXSwZ9HC7UPe9ixntOjNLpL4cB9ilu+Lt+6Vj46XNwWMlmplwkbW4BNxhdI0sSnX/G18pWfbMJIDywkbOEDAAAAAAAAABqKHtFoeyPvOe/F7vYpSeVTfjIAmCnWpMlRqVxM7hTOWC4tKiammbUf60xZVzGStVafBb1UnjZy9vCRvFPXH5qkakZbgSmhdPCxx+y3Ksm6Fh3+HEcZgXsio2+POeJ2rr1xdYx2A9nMkbNz7MM6477HvP6YbTVKxeRBVjr+8xz2OPbvAwAAzEk+Kd9zp3zrWklSHL5FvucemeeMik7N/A5JCmG0Sp9ozDdac6BtjV513kX1s38nQmgA880lTY7IFp2p0tNepeyC50uSwrJfkC0689D9wil+lNocHx/muEFOGDpPuk79KQAAADC7rEu29EmyRzxRkhTyccU7P6H8to8cOSgBzRVttSS5L7pAEkE05hVBNNrS2LWrlnq06yTJpZWp6wHQYVzS+B6F5U9S+QVXK3t8X+qKAAAAgM4zNYiitEjh/FcqPvCf8p0/YRLDVpDZSyStS10GOgvDptB2xj+0uhx31f7WpUtdujR1PQA60MQ+heVPUvfLrieEBgAAAJqhtEjh0c+SPE9dCSR59MvGr7+oN3Ud6CwE0Wg7+cNjf+Rur0ldB4AOlU9K3YtVfu5fKjzqiamrAQAAABYWz4sjFJGG1U9uK7Nlj2DwH+YVQTTayuh7zr3MZe+Qpa4EQMfKJ9W15lXKzn926koAAACAhSOflD/8o2Iyar7zt4Jel6qpi0BnIYhG2xi96rxV0cM1kk5PXQuADlUbky05R13PekPqSgAAAIAFJW7+kuL270klukG0CnNVJj79CuaXw7whiAYAAAAAAAAANBRBNNrC+IdWlz3qHZLWpK4FQAeKteJkQeXqn8rOXJG6IgAAAGDB8J23Kf7of0tGTNVSTKut/LMLU5eBzsF/ONpD777f8onABIUAGmPigDRxQF1PeZlKF1+RuhoAAABgYcgnpXxS8Y6Pyyf2SqErdUWYxt2WmC36ldR1oHPQ5wUtb/Lzl1ycby2/U1nqSgB0pHxCdtoySVLpaa+UMjZ+AQAAgGbwbd8qfj7wbULoVmQqKbenpy4DnYMgGi1t/EOry7WHx9+n3M5R5qnLAdCJauOyJUUrDjtjeepqAAAAgAXB92xT/uPrivO1EalrceqSMBv3C/IvXLI8+7WbtqcuBe2PIBotLX947I8ku4wQGkDIZMPTAAAgAElEQVTDlLoV9+2QJPmurfSHBgAAABrM92xT3HSVfP/W4gpC6NZlOs/zRRdIIojGKSOIRksaueq8qR5Eb0tdC4AOl5WlsT2SpMkf3KDuFRdLpUWpqwIAAAA6T21Uvv07ym+7Xr7nHqlEAN3qXLbMsrhG0rrUtaD9EUSj5Yxff1GvR3unJMm1VJa6IgAdr7vYAK796AuyMx6t0upfVXjkKqlnSerKAAAAgLQ8SjGfdrkmxdrh94m5fHJUFg/I83EpH5dqY1I+VjxkfLe0f5t85+2Ku+4obi/1pl4zzFWuXx7/0Opy9+/fMZG6FLS3kLoAAAAAAAAAAEBnY0Q0Wk6+fe+bJBuQJEZDA2gKO7RfdvI/PqjJ73xEYfmT1PWUK5SdP0jfaAAAALSHfLL+c+zQdTEvTp7L6+dN9ZHKM0cv5+Py2mhxvjZaPH7yQHHf8V31+41KtTF5rA+OrY1IE3un1TAhnxoxHScP/fRcCmUp6y5OaBtudkF2ziPPkbQ5dS1ob+bOJHBoHaPvPndN9PAVmc5OXQuABWrq0MPJEUlSeMzFKl34QoVHXyhJsvLpxf2yrkOPmX5+uqx8xFU2/bowbX9wlh1+x1BctpBJlmlWIZv9/MznPqyA0tGfwzhQCgAAoKmmtj2n2l3EXMqLgNdrEzKNFWGxdERgXNxnWmg8eUBeK0JjjdeD4emhcW2keLwkTYXI+cTB5/ZYK8LifEJSnFFoOLTdOHPbdOryjG1Jm3bZj7Y9i3YxYvIXli7fQJ9onBJGRKNljF9/UW9U+HNCaABJWZCyIGVnSh4Vf36LJrbeLC16RHFzqfvIgLk0exBtswTRmvW6rmNfF472/LOE4aXyjPuUD7/PjGUdfvuM2rL6ZkIoHfY4O9r9pmqddtmm157NDMFnrFdp9pEx1tUz7T6zvX6HHmdH20Fw2PljvEahNOtOgYM7BKYH9zPrnR7yh1m+bBH0AwDQ/rwe0Ma8HgBPyPOJI3sjS4ePMJ66XA+MDz7d0UYZS0cGx/mEPK9JPnlopLHnOmHTQ+FpIbKFkqSSfJ56NzPssaP0KtMFYsJCnCKCaLSM/KE9L5XCi1PXAQAHWZB6zqyPVCkOL/Tx+peDGI/7cJeO/eXAj/8cxbJqx79PmOeP9LmGppYV63iyo1xCKF7LEOrP4cWypy9/2nmbNbQvz/7cpSNDd88n5r6D4OBtcxj9HmYu68jQfypEP2LnwFGWZVl5zjsHDnverHR4PTN2ABzcOTB1vzh53J0Ch+0MmLE+Mw+tndPOgBmvuWXlYp2m/tan7xCY2hFQ3PHgdUfUaqUjdwAQ/gMApGKba/KAfHy/JM0+od70lhTSYYGx1w4UI4zrYXHxlNPaUkhHBMbFfWr1lhTx6NuExwuSbcZnYP2zzaZ9/rqmbjvFl6kZvwu0r9yezoSFOFUE0WgJo1c/bqXn9udiAk0ArcjCsYPKdjLX8Hu+HnfYcxzl681hI5CtuJ/PHr57PnHStfj0n3PYkdCypof309clnOBH6FFD2lm+xR4l4D2VHQPF42eMyJ86PPhYYf3RrguzPf8xgvDSjCB86j4nctTA9IA+6zp8Z8DM2urX2fSjBvLakTsO6sH6XMP/OQf/M+o/YofMbK2CprcIOvTAQ7cdqyXQsdoAzSd2NgAL21Rbi7Fd8vGHpJEHi6tHtkujw8Vo4wMPzB4aTwuMlY/LZ25fzLa9MVtobHM4CurgaONZnvIkd+YTGqOpXPLgl5RWnLFU0vbU5aB9EUSjJXjufyjZ6tR1AEDHO9nQhrCnOeYasmdHOd+IZc123/pln5oQ6TAjc33SY3+Jno+dH8fb4TAzzG+W6TsNZi57akfDXGVdktV3Hljp4H6E4+4kKB0jcJ/t/lPLmu28dFiYbsfbeVA6Tv/8YyzriCMFDmsNdJQ2QgePJDh0NMBhbYO6Fh2+7OMdEXC0HQKz1XyMnZhHnTNAOva8AYeeoKgl6ylu530anSyfLEYqj04FzTvku34i3323NL5LPrFbfmD7wb7JR3WU/xOzcFg/46n7ztdIY4ngGB3AbWV0Lc8IonEKCKKR3Oi7z13jCq9PXQcAAMk1M0gitOosHiXFg0mH18anXV83OTrt/odHIj7LuWPuDDjR8P6oh6Qf43lO5m90vibDOtEjDGar18JhAbMdoz3NMXcMHO0IgaxLdvojFU4/W/aIx8qWrFRYem7x+EWPkJ1+ltSzZH5eD6DZPEojw8Uo531bFIdvkfbeJ9+/pbh5bFfxvjLVHix0ySzIs+6TW1zq9QVaXbEzptdqXasl3ZK6HLQvgmgkNfHpV5Rc9i5Jp6euBQAAoG0dLbRlh8PxzZpAzdMo+Wk9/n1mv/+JA4dfnhbKH2whdKwR8p5L+YRyqQi8S91SqRi9HRafLXvEuQpnn6/wqAuKn0tXSqcxJzhaVG1Uvvee4nw9ePbdd0n7tsgn9hYtNEJWHAEgSaH7iFHKhMlAE4Sup0n6l9RloH2xZQoAAAAAAAAAaChzZ78h0hl59+OudOmTYqcIAAAAcHI81idtq4+6jlGq1VuxlE+T9Z4lW3qeshUXKzzmKZKk7LFrZPVWHkAStdGiz/ND/yV/+EfyvZslST7yoFQ7UPR1D2VZKJ30hH4A5pfJv5YP7/p1Sep+/a1znRgEOIjWHEhi7NpVS+tn3yJCaAAAAODkWTiiJ7XKvcXPfFK+/yH5vu2Km2+UuhdLksIZyxUec7Gyx/crO78qW/zo1GuBTjc10e2un8i3f7cInx/+cdF6Y6rXs1QE0N1LDz0sdd0AprELSo/qOaN+gSAaJ4wgGknEXbVXS5K7XTofMxADAAAAmEXWdWiSQ49SLCaOjA9vVhz+mWq3fUVhyWOUPe5ZKl18hcKKi4v7lhalrhydoD7pYNz+bfn9G4urpsJnSbJMlnUz4hloEy6tdNdyScqk7anrQfuhNQeabvTqx62Muf5NkuRxDZPoAAAAAIlMhdP5pFTuVbby6ZKk0lNeptITKlLvWakrRDua2Cffc5fivV8qWm+MPHjwJgsluTIxIAloT8Hy10pS9pL/+IfUtaD9MCIaTee5v1yyNZKYyR0AAABIyYKUhWLUtEfld2+QJOV3rdPkORep9JQrVVr9PPpJY058zzb58E3yLd9QfPhHUj4mZT1S6D4YPDMUDmhjLnmWPSV1GWhfBNFoqtGrzlslt99l7zcAAADQYiwc6i0tKf78Fk38/BbVbr5BpTWvUumXfo1e0jjSnrsVf17swIhbvynffZcUc1l5sbxrcerqAMy33FelLgHti9YcaKqRq877S4/2rtR1AAAAAJgDj9L4PklSWPl0dT39NyVJpSe/hD7SC5w/tElxy9fl278n37/14PVW6qXnM9DJzO+QpHzbz5/V8+a7d6YuB+2FvggAAAAAAAAAgIZiRDSaZvTqx630XN9x6ZzUtQAAAAA4AbEmTY5KpR5JUvaEisq/8vsK5z0jdWVoMt95m+Ld/yq//z/k47sky2RZd3EbI6GBjmfy4eLcxLNKl3/nztT1oL3QIxpN4+6/5TJCaAAAAKDdhJLUvVjKJyVJ+U++prH7blLpkt9U+VlvkHrPSl0hGsWjfNdPJOlQAD2xV7JMKi2WjAkIgYXEZb2SZCqdL4kgGieEIBpNMXrVucvl9trUdQAAAAA4BVnXwZ8+cUCT6z+g/N7vqPt5/4/CY9ekrg7zbc/dyu/+jHzrWkkqAujQJZV6T/GJAbQtV1mSVArnpS4F7YcgGk3hste728rUdQAAAACYJ1lZysqK931XYzf8lrr63qSuS36TSQw7gO/ZJv/51xV/9m/ykQdlU8EzATQAK7JEG6s9KXUpaD8E0Wi4sWtXLfWoV6SuAwAAAEADdC+W739IE1/5C8UHfqzyZf9DkmRnrkhdGU7UxD7Frd9UvPvT8p13FDsbuhbTegPAEbyrdF7qGtB+CKLRcHFX7dWSnZ+6DgAAAAANUu6V8knVvv8xxYfukiR1v+Bq2nW0CX/gRklSvONjisM/lOKE1L0kdVkAWplr2fj1F/V2v/7WkdSloH2YO/s20Thj165aGnflX3Hp0tS1AAAAAGgwj9LoLkmSLXu8up9/lbILXpC6KhyF73tA8SfXK25bX1wxuU/Keoo+0ABwDCZtkcafXbr8O0xYiDljRDQaKu6u9bnsqanrAAAAANAEFqRFZ0mSfPf9Gv/cW1Q+MKzSmt8obkNryCcVN39J8Y6PyQ/cfyh47lqcujIArW5qPKt5r1ReIYkgGnPGlgAAAAAAAAAAoKEYEY2Gmfj0K0qSXiapnLoWAAAAAE1i9Z/lXvnEAY1/+e3yyVF1/fJrpYyWD8ntuVv5bX+v+POh4nKpN3VFANqQy3otTp6dug60F4JoNEztzu9cKtdzUtcBAAAAIJGsLOWTmvjau6TJUXX9ypsIo1OpjSre8znFn35cPvKgVFp8aKcBAMzV1PuGq6yu0rLU5aC9EESjYdzteZKWpq4DAAAAQEJZl1TLNfGNqyVJXf1vSV3RguI7b5MkxTs+rrj1G5Jl9IIGcOpMJc/1qNRloL0QRGPejV79uJWSJPfL2cUOAAAAQKUeKUZNfPP/lboWSZK6nvF6JjBsJI+K93xe8Y6PFRf3bpa6Tjs0MSEAnCKTrUxdA9oLQTTmnStWinNhdepaAAAAALSIcq80MVK06ZBk3Weo9LRXpq6qMx3Yofy2Dytu+YYUJ4vrupekrgpAx3F6ROOEsPsZ82r8+ot6ldvLlNvLUtcCAAAAoMWUe6UYpRg1/pW3K7/zm6kr6jj+0CbVvv0Hivd+UWahmIyQCQkBNILr9LG/efwZqctA+yCIxryK2/dc4LI+l/WlrgUAAABACyr3FqfamMa/+GeK9/8wdUWdIZ9UvPMTyv/zz+R77pG6FsstS10VgM7WU3rcOcwNhjkjiAYAAAAAAAAANBRBNOZVtPASSafXTwAAAAAwu1KPfNdWjX/57dLIw6mraV8jD0sjDyu/5f3Kb/mf8skDtOIA0BQedLrbOA3oMWdMVoh5M379Rb1yv1yy1KUAAAAAaAfdixU336iJb1yt8gvfK2VdqStqK77zNsUfXitJiju+Lyv10o4DQNOYa5lU7kldB9oHQTTmTf7Q3opkv5C6DgAAAABtpGuRJjd9UuGxa1R62itTV9M2fNs65T/8X/L9W4sruhbLUxcFYEFxWa+5LUtdB9oHrTkwf3K9RFI5dRkAAAAA2khWlmrjmvzPD8uHf5a6mtbnUfHOT6h207vlB+6XuhYXJwBoNlevYqQ1K+aMIBrzYvSqc5e79Cup6wAAAADQhroXK97/Q03e9FHJY3HCkSb2Kd/0XuU/vFbKx+kFDSAtkywLvBFhzgiiMS88hj7acgAAAAA4KRak0iLV/uvTits2KW7blLqi1nNgh/Kb/0rxzk/JQknKulNXBADyQBCNuaNHNOaJP1sy2nIAAAAAODnlXvm+7ar94BPFxXOezOSFkrTnbklSvun9iju+L3UvoRc0gBbiBNGYM0ZEAwAAAAAAAAAaihHROGWjV527XAqXpK4DAAAAQJvrXqzJH/6bJKn0tFcqPHZN6oqS8oc2Kd/018X53XcxKSGA1pOHR6YuAe2DIBqnzN0udWl16joAAAAAtLmsLI08LEmq3fKvKq94atE/egHyB25Uvumv5fu3FlcQQgNoRZl6UpeA9rEwP9Exv1z/TRL9oQEAAACcuu7FUvdi1X76dfnD96auJgnftk75zVcVIXTXYkJoAK0r1xmpS0D7IIjGKSnacmiNcktdCgAAAIBOkJWlrCzftVW1276Yupqm8/u+qvzmv5KPDhNAAwA6CkE0TonLVkm6UIF5mwEAAADMo6xLtZ+ulfLJ1JU0jd/3VdV+8F755AGp1Ju6HACYg3h66grQPgiicWqinuqypWJANAAAAID5FEqK229T3Hpz6kqaYiqEVj4uZd2pywGA42NMIk4QQTRO2viHVpclPS11HQAAAAA6kAVpYkS1u9alrqTh4s8+SwgNoD2ZlqQuAe2jlLoAtK+4e3y53J7JaGgAAAAA886KcVNxy81SbVQqLUpd0bzz+74qScp/+L+k2gjtOAC0F5PkNpG6DLQPRkQDAAAAAAAAABqKEdE4eTGe7xZWpS4DAAAAQIcKQfGhuxR33KlwzpNTVzOvfNs65f/1geICo6EBtCvzcuoS0D4YEY2T5mbPVE5fDgAAAAANYpl8bI/iA7elrmRe+QM3Kv+v98sn9son9hJCAwAWBEZE44TVJymUR3uyMqZIBQAAANAgIZPG9yk+eHvqSuaN77xN+aa/lo8OE0ADABYURkTjhJVWnLG0tOKMpSZdmroWAAAAAB3MgmRBcced0tju1NWcMt+zTfn33yPfv5UQGgCw4DAiGidscu+2VZLk6j4ndS0AAAAAOp/vuk9xzwMKPUtSl3LyDuxQ3HSVfPddUtfi1NUAANB0BNE4YfG+8kDqGgAAAAAsEJbJR3bJ9z8kPeqJqas5OWO7lf/wbxV3fJ8QGgCwYBFE48S52nTrDwAAAEDbybrkEyPy3dtSV3LiPEqS8ts+rLj1G7JSr5hlBwCwUNEjGgAAAAAAAADQUIyIxgkZ+5vHnyG3C1LXAQAAAGCBCJk0vk++/8HUlZyweNe/FD9/9jkp65FblrokAJhfbhOpS0D7IIjGCfGR/DxJK4pLlrocAAAAAJ3OghRr8r0PFq0urD0O7PUHblT+4+vr65BJoSt1SQDQAD6SugK0D4JonBCPttql01PXAQAAAGBh8f07pMkDUrkNJvvbc7fyTX8t1er5TKk3dUUAACRHEI0T4qYny1VOXQcAAACABSSU5OP7pdqEWv7byNhu5ZveL9+/Vepqg9AcAE5J2J+6ArSP9jimCa3DtTp1CQAAAAAWGAvysT3yydHUlRybR+W3fVhxx/cJoQEAmIEgGnM29jePP0PSytR1AAAAAFiARndLk+OpqzimeM/nFe/9spT1pC4FAJplR+oC0D4IojFnPpKfZ+Znp64DAAAAwAJjmTyfSF3FMflDmxRv/0gxoSITEwJYIFw+lroGtA+CaAAAAAAAAABAQxFEY87ctEKu01PXAQAAAGABqk227qjoiX2KP75ePvKglHWnrgYAmsYy35e6BrQPgmjMXdQKly1JXQYAAAAAtAyPij/5qOL278pKvamrAYCmsujDqWtA+yilLgBtxPWLYucFAAAAgBTyieLUYvznQ8rv+pRUWiS3LHU5ANA8rprHOJK6DLQPgmjMnekc1UzKPHUlAAAAABaarFycWoTve0CSlN92vRQnJUZDA1hgzHy3LOxPXQfaB0E05mT8Q6vLcp2jQAgNAAAAYIHzqHjnPxZnd98ldS1OXREAJGAjMlpzYO4IojEncff4csmWyFJXAgAAAGBBKnXJWmREtP98SPG+r0uSrNQrhusAWIjcfMQ835m6DrQP+v1ibvJ4tsyZqBAAAABA83kuK5+euorCyMNFO458XMrH6QsNYMGyqOHa5h3bU9eB9kEQjTnxzM52t6Xs6gcAAACQRLlX6upOXYXiXTcU7ThCd3ECgIXKtL/nj3+2N3UZaB8E0QAAAAAAAACAhqJHNOYmt9MltcixcAAAAAAWFI+ynjNlXYvSlvHQJsV7vyiFspg/BwBsR+oK0F4YEY25meoPzcYWAAAAgGaLNVn36VIp4WSFE/sU7/iYfHRYymjJAQAu35K6BrQXgmjMjWl56hIAAAAALFy2aImU9SRbftz6TcUHbpS6Tkv9UgBAeq6aZXowdRloLwTRmBN3PSp1DQAAAAAWsNPOkrKuJIv2fQ8o3v3p4kJIUwMAtBTThCZrw6nLQHshiMacmLQ0dQ0AAAAAFqBYk0qLFBanO0jTt/67fOcdUqk39asBAC3B5CPKbHPqOtBeCKIxJ+5WlqeuAgAAAMCCE2tSuVd2RqIges/dind+kpYcADCNm4YtTGxOXQfaC0E05uoMJioEAAAA0HQxysqnyRan6RaY//QG+fguWnIAwDQmvz/7tZu2p64D7YUgGgAAAAAAAADQUKXUBaBtLEldAAAAAIAFyHPZ4rNlpz2yuYt9aJMkKW5bLyv10qkQAKbzsC11CWg/BNGYE5PKbHgBAAAASMHOPEd2ehPnT/eoeNdnivO1ETmTFALAYVy+JXUNaD8E0ZgbVy89ogEAAAA0lUfJo8LS86Ty4uYtdvt35Tu+X1ygNzQAHOKqSZJ57bbUpaD9EERjbkwMAQAAAADQXB6lUrfC0sc1b5n5pOK9XyomKJSkruYF4ADQ8kwTkqRgm1OXgvZDEI058h4xJBoAAABAM8WarPcsheUXNG2RvvNHxWjoUE699gDQckwaliQLE5tT14L2QxCNOXEZW2EAAAAAmitGWe8jFB75+OYsL59U3PJ1+eiw1M187QBwBIt3S1L2azdtT10K2g9BNOaKIBoAAABA04VHPkE67eymLMv33Cm//z+kjK8/ADArD9tSl4D2FVIXAAAAAAAAAADobIyIxlzxtwIAAACgeTxKksI5v9S8RW5dK99/P205AOBoMv9+6hLQvggXMVeMngcAAADQVLboTIUVT2vOwg7sUNy2jrYcAHAsuW5PXQLaF0E0AAAAAKD1xFy2+FHKHvuU5ixu+7fl+7dKXYtTrzkAtCSTD8viPanrQPsiiAYAAAAAtJ58UtnKp0vlJgTDtVH5lm9IlqVeawBoXa478uE9OyQCRZwc/m4AAAAAAK3DD50Nj13TnEXuvUe+525Z1j198QCAKS6pZLfYkidNpC4F7YsgGgAAAADQOuKkJMlOf6TCiua05dC+LfKJvVKpN/XaA0AL85+Wr/xkLXUVaF8E0QAAAACA1pHXg+il5yksW9WURfruu1KvNQC0uppifnPqItDeCKIBAAAAAK2jNipJyh73DCk0oWezR/nO26XQlXrNAaBlmel+ybanrgPtLaQuAAAAAAAAAADQ2RgRDQAAAABoDR6l0iJJUnbuJZI1fuyU739QPrJdZoGJCgHgqPz22r337yRIxKng7wcAAAAA0BomxxTOOk+SFJad35xl7vmJfGy3LPW6A0BLsx/3/PHP9qauAu2NIBpzFUUrFwAAAACNVBtVWP4kSZKdcXZTFul775XyEXmpN/XaA0DLMst/kroGtD+CaMxVTVI5dREAAAAAOpRHKZQUzr2kuFxv0dHwxe6+O/WaA0BLM/mwy29PXQfaH0E05mpCBNEAAAAAGiXWpJ4zlZ3z5OYsb2y3JMn33StZlnrtAaAlWShJ+eRmmW1PXQvaH0E05sTkE07XNAAAAACNMjmq8OgLZfUe0Y3m++4pzowOp15zAGhZHmsys9vz+x+6nxARp4q/IcyNab9cS1OXAQAAAKBDxZqy5U+Snf6opizO924uftZGZaEkT73+ANCqsnhb9+/fMZG6DLQ/Jp8DAAAAAAAAADQUI6IxJ+4aSV0DAAAAgA6VT0qlRQqPXSNZk8ZL7d9W/IyT8qw39SsAAC3J5MPK7ebUdaAzEERjjmx/6goAAAAAdKh8Unb6IxXOPr85y5vYJ997z6HLTIcDALNy07Ap3nPqzwQQRGOOwtLJ3fGhspTROQ0AAADAPIuTCo98gsKjfrE5yxt98GCPaADA0Zn77bG2YlvqOtAZCKIxN679yiVlqQsBAAAA0FE8SqFL4dFPksqLm7PIkR3y8d3FBeNLDgAcjctuL1/5yVrqOtAZCKIxJ76rNKwyo6EBAAAAzLOYS109Co95StMW6bt+Ik3uKy50NSf8BoA2NGKxdlvqItA5mjQLBNpe0NbUJQAAAADoQJ4rnLFc2WMubs7y8kn5/m1FAB7z1GsPAC3LpGFl4bup60DnYEQ05sZ8MzN4AAAAAJh3Mcoe+QTZWY9ryuJ8ZLgYEZ2VU685ALQ2i3eXXvIfm1OXgc7BiGjMiUXdb/KdqesAAAAA0EE8SiEoe+zTJGvS19PJndLocNEbmv7QAHBU7nZj6hrQWQiiAQAAAAAAAAANRRCNudrm0o7URQAAAADoMKUeZede2pxleZRvXSsf3yULJVmgWyUAzMpVCxbvTV0GOgtBNOYkPOrMLWFpbZty+kQDAAAAmCf5hMKSFQpnn9+c5Y0MK275mhTKcsvktOYAgKNyZ0Ai5hdBNOak+/W3jsj8HjGpNAAAAID5kk8qPObJUu9ZTVmc1ybkkyPN60cNAG3KzHdLtTtT14HOwqcv5sx3dv1AZZ9IXQcAAACADuCSSt3KVj69aYu0RWcqPGK1NHkg9doDQIvzjaXLv0MQjXlFEI05M/k9Jt+fug4AAAAAnSBKWVlh5SXNW2R5scLq18jKi6XaSHECABxk0haTtngYe0/qWtB5mJkBJ2KbZGOpiwAAAADQATzKuhfLlqzYJKl2lHuV53ux9uhnKlvz5+X8B+89W5LctUTGd2O0ET+5h1mb9Np0ZRLTU6UwYha/K8W3S1LXi2+6JXVB6DzmfpLvYFiQDrz7cd+UdFnqOgAAAAB0hM92rb70ZeUrP1k79aeSJj79ijkFyuUrP1mrfe6/nSdJ+e57nhPOXPVYk/WkfjGAOetdfnrTltV1Zm/Dl1HqPvT/t/vWHcrFILgmcfmYZXpQuW7PH3jw292/fwctWdEwtOYAAAAAAAAAADQUI6JxQkauPu/5ntvn6hfn/TA5AAAAAAvG/mDxJYvecd+3UhcCAAAajyAaJ2zk3ef9mSS57Boxqh4AAADAiXDtkCQrxT/tfft9H0tdDgAAaA6CaJy0kavPfY3n9ufKw2oFZzIBAAAAAMey38y/LNOHJKn3LzZ/O3VBAACgeQiicUpGrzpvlbsGJFXdbVnqegAAAAC0lL0y326un5r8xrD8zNu7X3/rSOqiAABA8xFEAwAAAAAAAAAaiv6+AAAAAAAAAICGIogGAAAAAAAAADQUQTQAAAAAAAAAoKEIogEAAAAAAAAADUUQDRVBqIUAACAASURBVAAAAAAAAABoKIJoAAAAAAAAAEBDEUQDAAAAAAAAABqKIBoAAAAAAAAA0FAE0QAAAAAAAACAhiKIBgAAAAAAAAA0FEE0AAAAAAAAAKChCKIBAAAAAAAAAA1FEA0AAAAAAAAAaCiCaAAAAAAAAABAQxFEAwAAAAAAAAAaiiAaAAAAAAAAANBQBNEAAAAAAAAAgIYiiAYAAAAAAAAANBRBNAAAAAAAAACgoQiiAQAAAAAAAAANRRANAAAAAAAAAGgogmgAAAAAAAAAQEMRRAMAAAAAAAAAGoogGgAAAAAAAADQUATRAAAAAAAAAICGIogGAAAAAAAAADQUQTQAAAAAAAAAoKEIogEAAAAAAAAADUUQDQAAAAAAAABoKIJoAAAAAAAAAEBDEUQDAAAAAAAAABqKIBoAAAAAAAAA0FAE0QAAAAAAAACAhiqlLgA4lv7+aqlUCuU89yP+VrPMapIUY4zr168fS10r0M4GBwd789yXxJj3hJCtkrIVZvkKyR5V3MOXSjpbUsld5anHmWmifvteSbsl25Hnfq+ZbTfTFnffXr/n/g0b1u1MvZ4AAACN0t8/sLTRyyiVbGzt2rUjqdcVAICTYe6eugYscP391ZKZLXf3s81s2aEATJJ0luRLQwi9McayZCXJa5JFSSOS5O77JRt2t4cl32zmw2bZjjz3HZK0cePa4dTrmFp/f7UkSaVSKJ/qcx0PG8btoa+v/xeKwFlyt4tCiE+WbLWkVZKWzOOittR/3u6uW9z1AzPdKWnz0NC6valfh9Sq1WpPCKGhRye12s66hbjOqV6Hk1GrxQlJ2rBhfS11LZ1maud66jpaXSv+//K+hbno66s8P8vCW6WpnfQNUXbXTe7+Dt6nj61VP2ePhc/guWnH320Kee4ldx9J8fc0lT+EoFKMqvE3jekIotF0/f3Vle5+oSRlWXax5L+kIvxaIWn5PCyiJmmzpPslyd3vNLMfuPsdkm1aaOFXtVrtyXO9TpKyzJ4dgjXkQyDGWA+gs2vWr//W7anXG0cqwufSM6XYL9kaM10oSWax5N6YbTkzkyTN+KzZLukmyb7nrqGhobU3pn5tUujvH1gagj4UgjU0mIrRN4dg72iFnUTFOtt7QpiX9/qjyvO400xvbtVQp1qt9kjhj0PQ01LXMlOMPiF5zV1jZrb3wIHRXT09PbvNbLskTe3sjTFu5yiHE1OpPPt3siy+IHUdra7V/n/rRwy9w0wXSFIjtqNi9JJk29z9GkkaGlq3LfV648QMDg72xuhfkjTQhMWNufvzhobWD6Ve71bU1ze4TJKyzN8h6bxGffdphJmfwcW19rDkO911v2TDkm9ZyO8RfX2Dy7JM72r0tmQniNFL7vaZoaG1H2/G8qrVao+79ZnpUsmfIEnFgEKfkHR/jPqOmW4cGlp3f+rXBmmxFwkAAAAAAAAA0FD0iEZTVCoDK6TsOWa1qpldGIKdX9zivQ1YXEnFCOtVkhSC97nb68xsu7s2V6sDN+Z5XNvVlQ1Jnd9KIoQQQlBVkmL0F8XYqKMgitEG7vGfJTEiuoVUKgPPkfyKEEqXmvmFZuGwEcqNGg1dPPesf2/LJb1I8heZaXu1OnBTcd/sC+755xfKKMvvfe/S8jOe8d2Xu+cN/R1IujvP/V2p11eSzNQj+ZUxalljl2PD7nqrpJYYUTlTCCHE6L8ao/pS1zI7U/1gBp1+eu/U/3F9RJntluJuMw0PDg7en+d+p2S3SX7r0NC6W1NX3tpqz4jRLk9dRaszs92t9P9bn6fkxZJWS1LjtqN8u6Tr6hcW7GjHdpXn8RIze2aTFtdjFq6QNJR6vVuRWax/v7QXS1rZuP/Zhq3Bwc/ggtfXS2OS73bX9mp1YPtUy7v6fW7asGH9lhNeVBsqfr92eYyMiJ4LM22T1PAR0ZXKwHPyPH9LqVTqk9QrFX/E0///6s1Ubq5WB/4+Rv8I7ToWLoJoNFSlMvhMKf62mVWkfIVkPYd/sDbetIBnuZmWS7o0y8LvxOh3S1K1Wv1ants/b9y47s7Ur1ejHGqb0dAXf3fxwxvZFw9zUPTksheHoNdKkpnWmIVlkuR+1HA4leVm9qLibP4cyd5SrQ5+Ms91/ULo7z452bWzXB5v9MRGu1Ov5yz1NDSIlrR7akLb1uV7G/yePD9VHnq/mNpmXCZpmZlWxej1L8s+Imm4Uhm4X5LMdFOex6+HEL690NphHYuZdfSO73nUiu/9DX8fLZVKe8vlcou/b2GmQ31QwxWS9zRjmWZR7uE51eplF9AO70hmFiXJXTvNtDJ1PfOoR/Xvs0XrO3+umaa+4w1XqwO3uGdfiDF+sZO3oc0sumt3/Xs9jssbvlO3v3/wT0LQ27u6upa4+7C7f8LMfiBJMWrYzHokf5KkF5tpjaSLQ7D+vr7BN0vM6bUQEURjXtX76F0mSWb6w6I/kDVi1POpWiJpTXHW1mSZ3lCpVD/vrg9LupW9c2hHRT9wH8iy8DZJl6jYYJXUcuHzYabV1lOM2Lars8z/e19f9X1m9omFMkIaaGO9klZOfeE3s0uzLLxe0rZqdfAb7vEzC3GOBgCdzz3Wg057ZfOWGSRpVZ7nA+IoxAVp2rbz1PfslZJWmuXPzzK9s1od+Ly7/t7db5eY/BCN09dXfVOpFN5XDHbS/3bX1e7aMTS07oi/uUpl4Jo899dkmb1T0suzrPg7HhwcfG2nH6WOwxFEY15UKgNnSKrUw+dmTNIx35aZ2evM9GrJ/qFSGbiOQ4zRTvr7q08Nwf60VAovb+XQeS7q9a8slcK1MfqrKpWBd9avX8eGNND66v/DPZJWmeWrpPBGd323r696gySZ6YsL5RBiAJ0ty0ovL875kmYu18wUgl7V1zf4L4wmxDQlFaH0H5jpNZL9H0nq6xv4aCcf/YvmK458l7LM3ufuY3nuf7px47oPHusx9QEJH6xUqj82s09Kerkk1Wr6gaT3p14nNA9BNE5ZpTL4TDO9WfU3kjbXI/kbzXRltTr4t+7+MYnZy9G6+vsHlkr2OyHY2yQta/cQejp3V3FUhb4iSWbh+v7+6nsJsID2MdUey0yXlkrh0uI6/8NqdfCjkn2ew8oBtKvBwcFed/8NSWp268H6Mi+V8ksk/Xvq1wItaYmZ/ockZZleWa0OXOOuT3B0Ek5Vf3+1FIK9p36xx90/snHj+g9WKtWKmc06/0me+04z3bhhw/pNQ0Prh/r7B94cgv5ZkkLwt/b3Vz/Nd7yFo6GzI6Gz9fcPLK1WB/7SzL9gFjshhJ5umeRXS/qMpM/09VWen7ogYLpKZeCSSmXgkhD0mRD8fWp8z92USsXJ32hmXygmXwTQbtx9arT0quIzNn6hWh38v/v6Bjv5/QtAh8pzXW6m1WbFRJbNNDXwIMvCb0z1qQaOYaWkD5vpn6vVyy5IXQzam5k9VdJA/bQ9xnhNcX24QtK7ZjtlmV0bgn1uaiR1CP5lSd+on5ZL4crU64XmIYjGCatUBp9ZqQw+MwR9TsUby7JpEwJ2FDNdaqZLsyzcUK0OfKDeggRIqlIZfLWZPmOmz0ht2QrnpIVgF5vphr6+6ptS1wLglK2S/Oos869WKoOvTl0MAJwIM//t1DVIenEI2fmpi0DbeJF7/LdKZeBFqQtB+zLTc6fOh2A3bty44R5Jcvep0fY3S37V9JO7/VjSyizTWyVp/fr1Y5K+KumrRashf2Hq9ULzdGZ6CAAAAAAAAABoGRzGgxNSrQ68wUxT/YAW0qG0SyT9sZku7usb+D0me0AKRT8uvdPM/kTFRGALTv1Q1GVZZn9brQ48IQT7c2ZZBtreGjO/rlqt/qq7vU2ShobW3Z+6KAA4mnov1KdavTl0wjk6eqT4WqkYZQgcT72VzD9VKs9+69DQN/8hdT1oS0+cOhOj/3CW229cv379O6ZfUakM/lTSR2P0lVPXufsd9bO7JZ2XeqXQPIyIxpwMDg72VqsDfyfpWhUB9EIKoacbCEFfqFSqldSFYGGpVAbOMNOHJfsLLdAQeoaSmf1BjP73lcrAGbTNAdper1l4taS1ktbSCx5Ai3uVpCXTet+n9NK+vsFl9NvHCVhiln+oWh14Q7U68IbUxaDd+OnTLuyY5Q616Rf6+weWmukZZlaSdOPBZ3HtdddeSXsl8V1uAWFENI6rr29wWVeXrpN0eepaWkGxF9k+098/8HsbNqz719T1oPPVQ+jrJOu0SUFPibvLzF4egsqS1N8/8LsbNqzbmbouACen+J8+OOnX5/r6qm8z0//ZsGF97ZSeGADmUV/fwPlZZpXUdUxzjnRw4vgPpi4GbaNH0t9KUqUyuH9oaO3HUxeE9hBCmIix2AEXo50+y10u7u8feKkkuceRLMteIPkb3XVzntvU0fUyC/XBVV7WjPAanY0R0TimSmVgRZb5p2J0QujDLQtB/1SpDL6aCZbQSIdCaBFCz8LdFaNfHqNfPjHh1zEyGugYvaVSuDYEe+/g4GBv6mIAYIqZvUjSqtR1TFMKwV4Vgr2qWq1y1BxORI+kHjO/liN+MVcx+rap82bxF2e5ywUh6LXFKXzATG+UtD3P85dt3Lh2eNr9fqF+WiJpc+r1QvMQROOoKpWBFWa6QdJA6lpaVK+ZX2fm1xFGY77191dL/f3VkuQfMIuE0HOwaFF4qZldw5cwoDPUD3f/4zyPf8dOJgCtoL9/YGkI/sLUdcxkpovMdFGeO9/bcDKWmNn/199fXXnqT4VO5661hy6FS/v7B5Yefg/77Pr16563fv2657n7r7r7zZJ6QsgOax9UtOvQM8xij6SNqdcLzUMQjSNM9Rgz0z9J6ktdTyszs97i5NdVKgMvSl0POoeZvad+ep07b9VzUYRW/voYw5tS1wJg/oQQXif5BxgZDSA1M/2KpEtS13FkXbHXLPZOTtpvp64FbWtVCPbe1EWg9WWZfUvS3ZLuNvPV7v5KSTIr2iVOt2HD+i3uenv99hsqlYFzJKlSGXym5JdLfrl7kLs+lXq90DykGzjM4OBg7+Rk/PDkZPywWWSP+nFMm6Ck10zXVioDLbdhivbT11d9k5n+xEx/krqWNlQKwd/FjiGgc7i7QvDXxejXHDpaBACaa3BwsNfMr1ALThpdBDlBPT12Cd9HcApeypG+OJ61a9eOuGfXuGfXmMVSltnbK5WBi9ztv9x1h6SfT7//0NC6b6joR16WbKCvb3BZnk++w8yWm9lyd/+Iu29KvV5oHoJoAAAAAAAAAEBDEUTjMDH6NT099tKeHnsp7QBOjJmtNNP76K2FU1GpDD4zy+ztZrFkFhn1d3J6u7pK/C8CHcQ9yCz+QQjhz0IIf5a6HgALT577Ksn+r9R1HIuZrRwZGX1O6jrQtkqSv5V5GXA8ZrVPmNU+4W4fl7TcTP8m+V5Jv7x+/dq/mnn/9evXvTsEe6Lkd2ZZ/GhXV9dzY9SPi1O8ZsOG9bXU64TmIeTAQZXKs3+nPqMpToK7y8z6Jib8A/391VfwZooTVUyAo2skLWdH0KnJ8/z8iQnxvwh0kOJ90d8lSZXKwI+HhtZ9MXVNABYOM7/CLCypt+VrSe6u005b9GuVysA/Dg2t25a6HrQfM12Y5/4aSR9MXQta1/r168ckqa9v8C1Z5mdIepGZviD5xyuVgc+YhbslKc8nx6SsFIKfY6ZBM3uDZMti9Dsk+++StHHjhntSrw+ai6QDkqT+/upTzfJ3ip0Tp8TdtWhReKlZ6TWpa0H7CUFvUmtPEDoiabukLSomqNgiaXf91FJh76H/xfDy1LUAmFclSSUzXdvXN3B+6mIALAx9fYPLJHtd6jrmaI1kldRFoD2ZWSnL7ApGRXcKa2hP+40b1w676zck/Y2k7ZK9ugik4w+k+IMsy/4zy/Q9M1tvFv5C0pIQ7LNm4deHhtbeODS09sbUrxCaj9ARGhwc7A3B3ieJw9jnRS4zf+9FF1383VtvveX21NWgPVQqA5eY6W2p6zCzqQk4xyTdKOkWSXLPbpPybZLtd49jZlaT1CN5b/2RZ7jb+SHEJ0t2qaRVqdelOEpB76xUBtYNDa27P3U9AE6dmUmS3H1llul91Wr1ZVOjctAxyqkLAGbKMn9pfVKt1KXMiVl82eDg4GfXrl07kroWtKVLYoy/IunfUxeSUE2HBtu0a27WK8WdjV7I0NC6vZLeWqkMfErSS8x0iQ59FzxDxWt4c4zxlhj9czHaNzhidWFr138ozKNaTW/MMhto5Q2rejhW06EPgpb92633sVx21lmPeK+kF6auB62vv79aCsHeJak3dS3uvkXyj7nbl2K0ezZuXDt8Io+vVqs9eZ6fY5Y9NQT9hqTnS5JZLCVqN7LKTG+V9NYUCwcSO5GAtjTjZ0uasa3yfPfSKyX9Q+q6WszU9lI7KrmL4Awto7+/WpKkEOy1qWs5MfbcPNfFKgYVAHNW/5ztybIwqIUdRN/vrit0YttSLcXdS2a2vVnLGxpad5Okm4ojSHypJIWgHrNQc4+7h4bWMzAIklr8ywYar69v4Pws09taJYOuB867JW2SJHfdJNlt7r7D3YfNrFa8oYYedz9HkkKw8yX/ZUmXSFqeeh2KuoMkXVapDL5akoaG1n48dU1oZfZiSc9NXMTwgQOjf9fbu+gfh4bWn3RPwfrIxHsk3TM4OPjveR4vKW4J75A0kGjdXlqpDPyTJA0Nrbs1UQ1As43kebwiy0qb3Y8/8am7l6TikFxJSyQ720wrJf8ld7vQzKdGtjT0EM8TVJLyN/f1DXx748Z1d6YuplXkub8ly7J1c/m9t6IYNbZx47q9qesAJMnMprZdLmzlQTuzKJnpVf391ZsYedhw8/n6ttL79sV9fYPLTnRQSgeZcPdN/P+cuPrfzEL9u8EctNIbHRLIMr1L0rLUdUgacdeteR5vkOK/m4UtkjTXN/7+/mrJPSwJQc818ytU9NldknKFzKzH3d8qSZXKwBfrh6wAh6mPhk7cksO/7G5vv+mm78xrSFs/HHRIkqrV6ndjDG8Kwd+m5r/nrDTTb9bPMzIaC0YI4db16791ypNVDQ4O9uZ5cYhljN6XZXaFpIuU+HO2WEe7eGRk5EpJV6WupVWEYHeuX/8tWoMB88BMv10/20o74ebIrzSzayQxaWHjbHHX79YHTJ1CtuK9MXpvloWVkp4o6WJJF9RvTPVd/QKzuFILOFA0s15JfIcH5hlB9AJWqVQrZvai1HVI2hijrpX88xs3ntwex3pgPSzp45I+XqkMPtMs/l5xq11uFntTtAUw04WSxMzDOJpiMj2/MMGix9z1P4sa9K6hoXUNPeysPlL6/ZVK9WbJPmym1U1e3xdJUl/fwHWMnMRCEWM+L7126zuVpnZU3Srpg8U2hF4r2WVKeDSSu+u00xb97kUXXfxZ5mU4qA0DM6D1VKuXXSCpkrqOU7DM3V4u6f2pC+lgE5K+u2HD+nkPK+t/f5LiS931igTbzsvNbIXqRyoDwHxJ0rATAAAAAAAAALBwMCJ6gervr5ZizN/W1dXVm6jf2bAkxWjvNfPrN2yY37YVQ0Nrb1R9co7+/oEvhBDeZmZrmrmu9WWVJCnL7Df7+gb/ZQH32MIM1Wq1R5LM7LfV/NFrI3nub9u4cX3TR+kPDa0fqlYv+3X3eIOZLm7Wcs1s1f/P3r0HyVmdeZ7/PedNVZdKCrVaVrAallW4CUJBMAyhYGktZnoqL8XYjBtfsI0vYIw92OHbOliPw+EmPCyBWcbtxfjudmO7we72tc3M0NimMaYy38x2YJqlWVZDsAxL0KxCy7IOjVpDQ1GgzPPsH5mFRVuALnXOm1n5/URkSKXbOect5Zvv+3vPec7wR71ezAwCjltZdkpJZaOxcE5R6GMx+puq6ouZbZ+dXf8mScyIBrBq3OMlIdi24c8nqj7088z8soWFhT8erWxBAjHaqqw++scOKbH0qUajdaOkj0v6kDJmOO62I1dbAKYHM6KnlJl+v1arnZ37ososyt0ecPcL3f3Cbnfxs6lrJ3e77Ztj9DfHGL+ZdbAvtDOEMA5lUDAmBgNvDQbeknR2BW1XEkKv6HTufDBGvc1d9+du28zfPNzJGcBqKMvFu/r9+Db34jJJT4xeWY3Kc3y40WidWPXxALA2jM4n57n7xIbQkhSCndrv+2ur7sdaZuYxdRtl2d7b6bQvj9GukJS0nN6hQvB/Uq83a/V6kwmMAFYNQfSUGtZ1zL/JkHvoxdh/Q1l2ytFsqiy63c6eogiXS7oq95hHamb9C+r11paK2seYCcEuCMEukDSXs113/VGVIfSKYZ1m+7CkPXnGPbyRNNNZIfiZVY8fWEu63U6/LH9+o7u9efR6IHcfzGybVJxX9bEAsFZYa2Wvl0kXY/+yqvuA1dHtLn5Wshvztegn1GphplYLSWZ9A5hOBNFTptk897ThxgeWfRampHvddXGv1320irEvLi4udTrtT8VoHzezCnpg55n5GVWMHeNlfr5+smS/P3xldWtR2DVVj3/FqITOpzM3WzPTa5jZAay+sly8qywX73KPl9Zqtaybgg4fNA0urfoYAJh8CwsLc2Z+odZAGUt3V61WO6vRWDin0Vg4p+r+4PjFGD/jrocyNbd5MPDaYOAT/14AMD4IoqfMYDBoDQaDlqRTMje9ZzDQxWXZ3lv1Meh2Fz/r7ldJ6o9eWZhZbWlp6XVVjx/VMyvONNOpmXe/3ueuK8etRmCn0/4TST8YvbJwt1dLtqnqsQNrVbfbue/gwYPvl/RE5ge/Z/36gTsAHJvBQDslnWuWvOLCkvKUM9pq5m8z87dlaAuJdbudPWa6I09rNueumvvkP5QBMD4IoqdIo9HadPCg6gcPqp7hwupQS+76yHAp/ngIwT7r7t9y92/latPd9du//dvnU55jutXrzVoI1szZ5vD9bp8vy/buqsd/ODH6dTH6dRptYpr+ePjpZpbzIQAwdcqyUw4Gfq27Z3vgK2kmRn9tjNRDBXBs6vVmbRTYzrknv1W+U9LVZlGp783c9Wp3vXq4Kg+Tzl2LGj7IAICJQxA9XV5ZFDOtophpZW73T8qyfWvVgz/UcFaoXS3Z1TlrWQ4Ggx2U55huZnaC5LtytlkUMw/nfOhytLrdzn3dbuc+d78l1+xJd7E8FUis1+t8ZXnZb8n48LsWgi+E4AtVjx3AZHKP2yVdlOF6pO9uP4pRfxFjeCjG8FDKc+WvV+IFHtStDY8pTxD9XNUDBbD2EEQDAAAAAAAAAJIiiJ4qdsbMzLNbZmae3ZJhqZkkyV0PuevzVY/8cMqyvXdYs9o/qYxLm6gTPfVOkrQzR0NmJjPTf/2v//DnZdl+vOqBv5z9+//+8+5+IEdbIcR61eMFpsHsbHGVe8jyvh45RdIpjUbrxKrHDmAShddK2uruqRt63N1v63bb+810R66av0VhF1AmcPLFOHgqU1PPmalvlm9fpXFSlu0nq+4DsBZRdH5KNJvNWUn1XAG0NAzBBoP41V6vU/kGhS+lLNu3NputWyW9PXVb7q65uQ3n1OvNWrfbmcoPdBSnS4Pk514zk7vvkaT162dvq3rUR2L37vsfbDZbPUmvT9+andFotDZxgQmk1enc+WCj0bzZzN6bqcmtox9PlzT2D+AAjI9Go7UphPB+KXkILUm3dLvt/ZLk7v9x+EvhIv36HJbKvHs8W9JEXBvi8EIoNuZpyZ8sijCt96yb5+eb/2NR2ESMfzDwWlEU7U7nzger7gvwcgiip8RgEDaGoLNzXFit1DeLsXggBLul6rEfiRj9uhDs9ZLmUrdlprNitJMljc3mjchjtFHhP83Y5P3SsAZz1WM/UjHqz0PIEUTrRHc/RdLEHBtgcoWbJH+38lx3bpYkdztDyjPDcAwtV90BYEI1zPz0DO0su+tPV74oy04pSc1ma7ek1Hv51IrC3tFsNtudTodzxYRy1w6ztPetZlHu4VfDvZWm0taisLFc2X04RWGS4kckEURj7BFET4misBOkeErONs38jk6nPdazoVd0u537Go3Wl8y0q9/vJ92UoVarKYThjTKmi5nN9fv909atC0q9OsHd+zHaX1c95qNlprsk7VP6GUGS7GQRRAMZ+APuutdMZ+dqMQT9btWjroqZ/4tGI/e+1Ecvxlgzsycm6WEp1jYzfTBPS36n+2HDoh9Jmlfye3Q7Xwoni8BqYoXgbzDzuZT3E+5BMdr/W/VYK0ZeBiTAG2tKuMdTQoizOUpzuId9wx/9x1WP+2iUZfuKqvuAtS1Gm6nVaqekLzsoSTowCnUnipnv7/cH965bt+68xPUZayHYjqrHC0wDd18Kwf5KyhdES35y1eOujv1bs6r78PKKIkhSu15vvkaSKFmGKtXrzTNDsPnU7QxLF+rb3W77N/6/DwZ2c1H4FZK2p+1D3PzUU8+8SQTRE6nRaO0ys3PzrHR2VvACWHVsVjglzCzHMrMVj0l6zEx3Vz1uYLz0N0nKsoGWu/ZJ/sDwNTk6nc5yrVb7ZY623OPUzpgEcup2O/3BIN6bs013bWZDromQdBUacKRCCJcpcYm+0f4dj7hbebjf7/UW9z399NM3W+InSe5BGzasf9/8/EKG1WdYTfV6a8tg0L/azLZlmGC2z90nYnUzgMnCjOgpMQxccj13sHskqdNpU3cMOEQItW2SJ69DLklmerzTmcyN+Nx1f55ZHtpW9ViBaVEUtcekuG/0ZY7wY7P7YLOk/VWPHcD4qteb2yUpBHt1nhbtpl5vcd+L/e7c3IZvu/uHJM0m7sj2EMLrJd2YZ9w4XsPNNP2LRZF81eCKB93DnqrHDWDtYUb0lDCzkzI11Zf8Pw1fAA4V42Bz6lkuv+aPVz3e4/CEpAxLtG1T1QMFpoV7fNJde92VZXaVmebMAvsxAHgZ4a1SeKtZ+r103H1fjPH2l/kzD0p+Z46Rmw0uzdEOjl+93jzTTD+U7J2ZQmhJS6DPkQAAIABJREFUuvelHpoAwLEiiAYAAAAAAAAAJEVpjumRqwbYc+62u+rBAuMohGJLvlkM9quqx3usYhzsK4rigBKft9y1qdlsznY6HcoIAYm5aykEPZG6nZVVJ+4+ZyZWPQB4UcNSB3qdNKybnJ7fHsJLbxDY7Xb6jUbrG2Y6P0OHzmo0Wq8uy/YdGdrCUWg2m7ODgY3Kxug9Idh7le9+XpKWY1SWPVsATB+C6Cnhro2ZKgI8F2M/+Y0mMJnCjDTI1JYvVT3aY2UW+pKSB9GSZkMIrAwCMqjVbDlGP5C6nRc+7LOZqscNYHy569VmOitDU31JitH+stt9+T103PULyR4w89Sbzc+Z6T2SCKKPQwjHd83daLQ2xTjYWhTrZt3jSTH6jqKwf1kUOnf0R7LsL/OPPPBim2oCwPEiiJ4SZtk+wJ40K5LfaAKTyGxAKHIEzCyOflTKGeRmqg0GzucgkEGMMer52u9ZnozXYoy8vwEcVr3erIWgN0iW/B7JXfcOfzyyYK/bbe9vNhe+L+naDIeiMT/f2tHrtR/O0NZaNCMVJ9frzaeO9i+uXO9K+nBRFO+W4qyZNhdFrv1kXrRfco+393pt6kMDSIIL9OmRKwB7rlYzlrkDlUt/Y5WSu/pSts1YAADAdDlDsvNyNGQ23HzwaIK9GOPtIdhHzWxr4rJu24rCL5F0ZY5jsQad4O4/DOHo73+H17qSmU6VNDab67r7Hne7oep+AFi7CKIBIBP34jmzbKU5Tqh6vMfcc/cQgiX/fFq5AQCQXgghxJh3BUIIgfc4gMMKIZwneY6au0+424+O4e/tlvx2d70zfRftvEaj9bWybD+e4XisNbPHWkIlU9nMo+yTyV03lOXi3qr7AmDtojbm9HguUzszg4Gz3B04DPfBk/las5wbmqwq91hTnpkhy2ae69wITLV+32cl3zh85WlS4v0N4DfNzy9sdfdLcrQVgt1Vlu3dZdk+qs3cu91OP0b7SynLQ/OdkrVyHA+MN3e/192/UnU/AKxtBNHTI9fN2JykTaMXgEO4x2wbCLrrlY1Ga1Oj0Zq496JZ2KwMQbSZnux0OpQSAjIY7lVh2yTbZnmmgS1JNrGbtgJIJwSdNyqHkNryYODfPta/7G7lSn3plMxi7dln4xsWFhbmFhYWJrq0G47Lsrt/vCzbGSfOAJhGBNEAAAAAAAAAgKQIoqeEu456J99jNCfpxNELwCFCKA7kastMmyWdOnpNFDM7SYn3MDAz9ft9ZksCmezfv3/TwYPrTj54cN3JUvpa+e5ailHZzrkAJkO93qyZ+ftytOVujxSF3Xmsf7/XW9xnpr9KvYrEPWh21s4dDLRzMNDOHMcG48UsKka7siw7ZdV9AbD2EURPCTPlWmITJNsxfAE4VIy+T1Ku8HNrjL4rRt9V9biPlnue80dRFGt+I5bRpjPU7EflNm/e/MqZmf6WmZn+Fvf0l59mekqy/VWPG8B4MbMzJZ2Toy13fXtxcfG4rvv+y3/Zf7O7P5HhuGxeWnrqzUtLT725Xm9y3TAlzGx0rRg+J8UvVN0fANOBIHp65NoFedbMf8/Mf6/qAQPjx/ZL2mcWczRWW7cuNNetC82qR300ms3mbK2mV6Vux91lFv6uyrHu2vU3/XXrDj6XIZSbrXKcVXDPsrkTjsLy8rNn5mhn5aa63+/vM4vMiAbwAmb+ESVedTVywMx/cLz/yO7d9z+4vOy/WDm3peLu2rBhw0UbNmy4SKxsnRoxxm/GGL8Zgl3Z7Xa4dgKQBUH01PBHMja2c/QCcIgQ/DlJj+SYDShJMfpZMfpZjUbrjKrHfqQGg7AxRs8xU6kfoz9c5VjNPPkTiWHgrtqYzYqeSd+E9fv9mGuTXryMRqO1acOG9VkfihVFsZebagCHmp9v7ZDsvBxtufvNZdlelZVXv/Vb9ufuvuzuqTdY3iZpm7ten/4IoUpmpqeffvpzRREuL4pw+fHO3AeAo0EQPSXcw3/O2NwOSTvq9WaW2U/ApHD3JckeytWemW0fvc6veuxHKgQ/R8MbodT6IYQHqxyrmfpSlvr9m800V+VYDxGk9H0x82VCyPHh7qdIOsfd5e5Z2lxaWv6/qx43gPESgt5jZlszNNV319dW6x9z99vcdb+77s/Qd4Vgly0sLIzLdQNW31K/Hz+yfv3cJxYXF5cIodeOwcDHaeIJ8KL4jzo9HjWLylOX0bZJ0jPPPPNaSfdVPXBgXHS7nX6z2fpPudpbCXzcdWG93vxOt9vZU/UxeDnPPuuXrF/vOc5Ve0Pwx6ocq5k/525PJd6DSJK2uvsJkiqviW0WNklxY4amuKkaI888s3Txxo0bZ3OE0MMHftLc3PrdVY8bwPio11tbzPTGTM0dMLMLm83W+ZKvO95/LITwTK6HeJJkpp0HDw4akm7L1iiycNfdkl/R67Ep4RE4IPlXJDtYdUeOjK8Lwe6puhfAkSCInhq+xz08YRa3ScoSSG/YsP4NjUbrS2XZzrVR4jGr11tvCcF2xKikS7lD0Iy7/9lqLdXD5HG33WbeV8bzbwhx52BQvFXSZ6se/0uZn2/tmJ21c93TJrNmpmeeiff/8pftSsPKTqez3Gy2kp8fR3UlT9MYPBh0jyeZ5ahZ7WP/uTMt6vXm9g0bNrwrY4iyT5LcPcvMQRw3Zl0iC7PijWaD7ZnORVvN9Iejllfhn3NleGj9AkUR3i+C6LVkj+R/Jtl1ZdnhGunI7Ot0OldW3QlgLaI0BwAAAAAAAAAgKWZET48nJd3vHpJv0HHITIPTpeItkm6sevAvZX6+taMo9A0zbQ4h/SyJGHVz1WNGddzjXik8ZOan52w3BP/YGWfsvG337vsrrYv8UorCLpd8c4621q1Tt+rxjhxI3cBow8Lfk/Sdqgcbo+8oivTTutz1RNVjxZCZrpSUoybrikckaRJKEaXjP5HsYY35db67z5nZ31LPHak1m81ZM3uDmIF/NObr9eaZ3W6n8tVUOGaPSHaHJLn7DWXZoWTVUWo0WpsmYXU3MGnG+gIVq6cs2082m61fmg13is6xLM0szrrrffPzC7f2eov7qj4GL2Yl/Ep9TMxM7v6DovApvjmGpMeleLdk2YJo9yAz2/bbv73p+mazeUGn00m96/pRWdnYNAR7a57j4f0QrFf1uIdsr5Sjbq7m6/VmrerApyjsn+dox4wgehyMyl69O1d7w8/ZeFfV466au325LNt3VN0PYFy462wzzVfdjwmzOYRwmcagrBeOjpkpxvjN/fv//vPjPAEFwPSiNMcUGW5OkLO9oBDi2WZ6d9VjP5xGo9loNJoNyS9K3ZZZlDSQu/103EJA5DUMAkP22bjurnXr1p0n6ZNVH4NDNZvN2RgH18Y4uDbTTvZy172SHqt67JIUo/4uRztmOtUs7KpyrPPzC1slNXK05V7Lclzx4hqN1hkh6NPKOOnB3ZfdteiuxarHX6UYIxNNgEOY2QWSsqy4WkvcvdVotE6quh84OqOVcNsIoQGMK4LoKeLuD8U4fFnGHS9C8E+szHgcF41G60Qzu9LMrlSmC1P3sCfG/tTP1IK0YcP6+zRcPv5IznaHs/7tD5vN1geqPga/Zu+u1Wrn1Wq183JtZmZmPx6fZXb+WKaGZqX4nipHGoLOM7NteVrrP1rlWKfd/Hz9ZEk3SDolV5vD2dD2iLt+4a5fVH0MqhRCIIgGNCy/Nz/f2iHpjVX3ZRKZ6dQYnWM3gczC+bt2verfVt0PADgcgugp0u129iwtPX3b0tLT2XZAHpUE2GpmX63XW1uqPgaSVK83a5JfbWYtM2vlOg6S/cQsUJYD+ulPf/Lg8rLfv7zs9+d8KDRSk3T9OITR8/ON10r6dOZml9z9zqrHvsJMD0vKUi7DzM5vNs89rYpxjs67H87U3AF3EURXoNk897Rm89zTQii+G4KdnbPt0Qyw73e7nX7VJWgAjIeiUKso1JK0veq+TCIzU1HYhQsLC9TWnjgDzcxs+mijsXBOo7FwTtW9AYBDMWNiyqxfv+GXkuTuS2Y2l2MG4ujm8GwzfbXRaL2/6pmIzzyz/IcbNqx/b462VkJGd18eDAY/7fVKbo4hSZqZsR9KkrufL2k2c/Nzkj6/a9ertkrS3Nz6L+V+XzYazUZRhK+ZWfL67IcKwW4fDPyhnGN9KTHa40XhjynDzFGzuM3dr6jXm++RVsrE5GEW3m7mO3PU4o/RnzCz5JtA4oXm5xuvDSFcLw1n0eV8X48sDwbOZsAAJEn1emuLmS6VpPzP/NeG0Xn8rIMHBw1J2SYyTZhlSQ9IWjrCP79DUvLVYe5B69Yd3KLRhI9Go/W6qu/BAWAFM6KnT3v0ureCm8S3m3mlM6Obzdb/vHHj3DWjjQOzbNo45HeGEKZ6qTB+w8p78YGK2p/dsGH9NRs2rL+mKOymnOVz6vXWW8zs+5K2ZzwP9SX1BwP9x3G6EF+3TkshWMZdzO1NZrV3mdXelavFer25fd264kpleOAyfPDp97r7kd4Q4jgNZ0EvfLUowr8f1iLXqVX0w92/Y+bMhAcgSTLTWSHEs0OIWVdnrEFzIdgFw5VNOIy9Meo1nU67HqMvvNSr02nX3XWphuF1LvOS5s30P1V9oABgBR8oU6bbbe+XpGZz4Wdmms8fRts7Q9Cm+fn6RyWp1+tmuWms11tbQrBrJH0o55hXwhD38MOyXByb8AvVW3kv1usLPwzBd6rC83GM/qYQ7Kxdu171jbm59d8qy/beFO3Mzy9sLQq/IgR9QMNZ2dmMNiiUu4/VjJ7FxcWlXbte9b9v3Dj3ptTnpmGppDgn6TOS1Gg0Hy3LTpmyzXq9tSXGwQ2DQdiRdHAjZqZ+3/+m16M0Q2rDMi+Dd7jbW6oKnw+xLIWbut1Fvu8AJEnPPuvvW7++GH2VffLNmmJmb5T0ZUkZH5xPDrNhibUjWWlWlu07Go3WF8z0h5m7+dFGY+HOslxkvyIAlWNGNAAAAAAAAAAgKWZET6kY43dCsPergs07zOz1IRQ7JKleb13Z7baT1nRsNBbOCUGflnw+91gl3T0cc6RuJQ7LzL9eq9Xe1+/3s8wYfQnbN26cuyZGv7jZbN3mrh+WZfue4/1HG43WJkmK0d8Vgl0maWcFY+vH6N+VpF6vs7+C9l/S3NzsL9y9rwyfySsbyI6+/P78fOOyXq9c9Vni8/MLWyVp3Tq7IcbaeblWorj7spmY7TNiFlZthnC93tw++jfnzfwPJJ0j2fbxqL3qN7v7cZ+vAKwNZ5yx87RXvGLL+RWUIVyrtprZ+WJG9GG5H931W4x2fVH4ORqWzchls5l/en5+4c293uK+vEcIAF6IIHpKdbudPY1G63sVLAuSuysEO3X08283Gs3X7N//95//nd/5nYdXa/OsRqN1kqQPS5KZPiBpc+5xSlqKUV+TpG63k7MWWMXCc1X3YJKUZfvJ+fnml2s1/7J7tYtURhuLnirpVDP960aj9ZCZ7hn+nv1vkh6N0feFoKUYbXndOi3FGOOh/0YIIfT7cauZnWqm10h6rSQVhZ2iij5z3PVACPZnlR7cl2SPuNtDIQxOz/F/4JAb821FEX7UbLY+464vrEbt7Hq9WTPT7xeFXTdsy85KPqAXesA97Mnc5tgys23z8wtLIfjMEfzxIEkxDmbMwmYz22qmkyX7Z5KfHoKdNvxjvlH5N1h9KQfcw9coy4G14B/+4R+m6HoxnVe8YstlGq/z1MRz1zvm5xe+LkkEmcen11vc12i0rjXTyjVSrnJ180XhH5L0qaqPwaQwc+5rgQQIoqeYu3/NzN6tDDv3HqbtlZ/Omdl7X/GKLW+R7HuNxsJ3Y9TDx3KBM9wE0V9pZhea6SJVMNt7hZnp4MGDvb/+6940zYQenU98a6PROrHqzhyh4K6llXrNVVm3LtwYo18qKXdo91I2m+lsSWdLkpnLzGSmZUnLReFPxqhfSbYSXj4naWYw0Akh2EkaPfwZg9mSfcmuH+ca7WXZ3rtr1/9wx8aNG0+voI7lnKSrJf2rer11vZnucvdfSUdW63BFvd7aMnr48B4ze6dZnJWGM7Bzcted3CAPmdmc5D8rCj/S72NNkoqimJE0o1+f06seykuNUU899dSN99zzN8yCx5oQQtguSY1Ga9wD6UNP7k+O0ybAw/0o9Jaq+7HWmPnpZmqMvpym+5skyrJ9R7PZ+pPRl/8mY9OfaDSavdR7hKwRM4NBPHECzscvJ2jMztMAQfQU63Y7e+r1hetD8Ouq7oukzWaDD0nhQyHo7kajVUqSu/7WzB43swODwcFls9B3jzWpqIXw/CznbWbaGYLqkp2jMZgB4e4HQig+WXU/MtsoSWa6wV0HzCbi/DJjplskXV5lJxYXF5cajdYnzfRTjfF5efQAaXb02qzDPOwxG7vQ6s6yXPxO1Z14OevXb/iluy8Nw8MXPKzLwkxnh2A/itEfCsFuk6R6vfVLM+0xC08dev4tinWz7nHj6K8+f/41U8t9+OShotn9y5I6VTQ8jkb/h6pYDZRNURQPz85uuKHqfgCrod/vbzezb0uSu5Ym5DpKMdoNkj5bdT8O6dHbJZuUCRETJQR9UJLq9eYtq7WKdZq563pJMtO8Mk1GGW5aHa5rNFoLBJMv68SiKH5WdSdWwYykP63Xm/+O9y3GxURc4CAdM/+6uy42q6Ru6wusBBcvnIUpSb4k+b4Qak9K3jer1cx8VtJKndMxvNG267rd9n1V9yKzlfPJNrP8s+yPwyur7oAkuXtb0rfM7L1V92UN2SeFj1XdiSPUlnSveyW17CX9umySu58qSWF4Sl6S4gvOv1KcNfvN82+VtTjNTO5+j7vurawTyK1/8ODgml6v/XDVHQFWyaxGD3jHYDXREQvB/7uq+7BiYWFhrijsQnGPm8q8JJnZmZKoy3+cyrL9uCSNJqP8pTJMphrtFXKW5FdJmpRr5KrUJJ1SdSdWh/0347zCDdOn2oKkqNzoSegnJI3z07E5SdtHS8J2mvnpGn4obNZYhtBqu/tXqu4EjthS1R2QhmUQ3HWNuz1QdV8mndnzZauv7HTufLDq/hyJbre9P0b78a/HUE0KcZgweSLOv+6uGO3HVZfZQT7u/q1JWO0ArHXu43EdJUmDgZ+r8SpzttbUJNXM/CNVd2QtKcv2HZK+nqu90bXeBxqN1qurHjuA6UQQjZUPvy9V3Y814okY/eMsdcKx6HY7e9z9ao1JOD7hfhCjf7PqThwNM/+BpEdGLxwFdz0kxb+ouh9Iz113D1/2iar7AmC8mPmFyrfx2xSzc+fn6ydX3Yu1JEZdnXkyypyZrm00Wic1Gq2Tqh4/gOlCEA0AAAAAAAAASIogGpKe3yyhV3U/JtmwRmnxyW63M221obGKut32zbOzs1+ouh+TzD3cG6N/YtI25CjL9t6nn37m208//cy3q+7LpDHzm7vdzp6q+4Hk9piFy8zCZZRhAXCoer15pmRZ9lkYlc9aHqNX7uudbcvLz12Uuc01bfiZ5h9T3u/lWWb6qJk+WvX4AUwXNnKApOFmCY3GwhVm/u+lidpobmy4+5fK8uc3Vt0PTL7l5WeuWV7WDkmanbW3VN2fSWEW5R6ecLfLu932RIaS69ev/2NJilFvM9PpVfdnEgzLctgNVfcDyR1w1/vKcjLqvgPIK4Rwntlg+8rm5ynFGL8p2Y+UYXO5I1NsNRt8dfRF8j6Zmebm1r+50Wh9iXKEq8fd22b2JUn/JmOzH5CkRqP1s1G5TgBIjiAazyvLxbsajYWPm/k3Rr80JhdX4y8E+w+DgV9ZdT+wNnQ6neVGo3X56MsTNNqlHC/NPSy56/1luXhX1X05ViuzPOv11tUhxB/luKGedGb6YqfT3lt1P5DUgRj1vm6Xm2QAv6nRaJ0o2Tsy7fO7J0a7rtdrP1z1uA/VbLb+5einb8/RnplOdbfXS2LT2FXS7Xb6jUbrekktM+3M0aaZzUmSu3+m0Wg9UJbtx6s+DgDWPu5w8QJlufidp59+5tqnn37m2qr7MiF6knqDgX+EGQFYTWXZfrws248PBoP3SLq36v6MuWVJy+72/rJs31p1Z1ZDt9u+OUabqM0WK3C7pNsnbVNKHDmzKEn7RiH0zVX3B8B4ctc5Iej0HA9v3f2OcQuhR8fgJnfdJD1/7kx5DGRms0WhC5rNJhOXVtEoCL5K0oEc7bn76PupnUtLT3+s6vEDmA4E0fgN69fP/tH69bN/JOlzVfdlnLnr7hj9khj9Ep4eI5Ver/voYKCLRRj9Ypbciw+7Fx8uy8U1NivHrnLX/alvKCfUE4OBLh8MdPmk1QLHkRmV2tnjrosJoQEczsLCwtzCwsJcjP3LMjV5QNJ3qx73i7h79OplCuQVo7fcw5lVD3ytcffbJPte7nY3bNjwofn5xmurHj+AtY8gGr+h2+30u91OP0b/hAijX0zP3d/W7Xb2sEEWUuv12g+Pwmg2FH2hAzHq0rL8+Y1rsT776AHX+90D55gX6rvbx3u99sPjOCsNq2O06egF1KwE8GIGAz99MPDTa7Xaue6eo8n73PWLqsd9OGXZfrIs20+6Fzk3PN4s+euqHvta0+12+u5+rbs94G4PZGx6NoRw/bDUDQCkQxCNF7USRrvrj5R/N+ZxdvtwhhYBNPLp9doPu+tiyX9imYogjqvRDOFH3PW2tT5Tsizb97jrI5KWqu7LGLlm7c1+x0hf0g8k/WAwsH/V7Xbuq7pDAMaXmV1qZpcqz75HfXe7adxX4cT4XDncxDcPM71lfr5+ctXjXmvKsv24u1/t7lcr4zWgmU6V/Oqqxw9gbSOIBgAAAAAAAAAkRRCNl9Ttdvpl2b4iRrtCzMiThrO0LinL9t6qO4LpU5btve52sbt/SaMN+qruUxXcQ1sKb5iWJftl2b7V3d4vzsGS9DnJ/9eqO4HVNVrlsWcw8I+u7L3Q6y3uq7pfAMZXo9E6SfK3Dl9ZPCb52G+I3Ot1H5V0S8YmTwlhplH1uNeibrd9c7fbvtnds9aLNrOL6vXWW6oeP4C1iyAaR6TbXfxsjLpU0h4z07SUBjhkrAckXcXNMapWlu0nO5325Ssb9Gn0npwSByR9zl0XdDp3Plh1Z3Iqy8XvjM7BT4xeU8j+WPJPdjqdqXwAs4b13f3WGP2CXq/zlZV9KqruFIDxZmbvkrR19MrR4k1l2X6y6nEfYV9/LCnb/YrZ4NJGo7Wp6lGvXXaVpEcyNjhnpmuoFQ0gFYJoHLFut31zjH7BwYMHbz948ODt0vO1WtesGP2hGP0hd13a6bQ/xc0xxsXKBn0x+gXufusaD6PvlXTvYBAv7nTaH5ucG8HVNZoV847hS/dX3Z+M+pL/LzHGywmh15xejHpHjP5m6kEDOFILCwtz7npHpuYOSDoQY5yYvQnc4z0hWLYNrs1sXtLZVY97rSrL9uODQbxcGfdsCsFOlfzqZrM5W/X4Aaw9BNE4Kt1u5z6zdZeYrbtE0lXu4UDVfVptK4Geu38zxsEfxDj4g7Jsj/1SPEynbrdzn7suiVGXKO9siRwOSLrKXRe464Jer7yt6g5VrSw7ZVl2yhgHb5b0gzX+AOIJSU+423s6nc6VPAicbP/owfW97sVl7nrHcOkx31sAR24w0JvM/NQ8rdn3JPveJG1S3u12+v2+f18ZS3o9+6y/r+pxr2XDa2D7es42zeydMdr5VY8dwNqTY4dhrDGHlKb4VKPRut1MV0s6r+p+rZYY9YCkT5rpjl6vy+w7jL3RDOHv1OvNnpl90EzvVbalqkksu/t3zIrPT1sJjiPV63UfXVhYuGwwCD83G1wlaXvVfVotZiZ3v91dn5CkslzcXXWfcNz67qEXo74mSe5W9no/p8wVgGNiFt9mFmrunrqpvru+W/V4j0UI/hPJHpR0Vuq23F2zs/baM87YeZok7d59P9duCcQYP2Nm55hpZ+q23F1mNhuCf7peb94jSZP0MAbAeCOIxnEpy/Y9zWbzAvfaRdLg42Y6RZP7/+oJyb7s7n/S7bb3V90Z4GiNLhCvmJ9v3VQU+rCklQ18tlXdtyO0z91vcdfXJO0uyzuZJfkSFhcXlyTdOD9fL4ui9jHJL5K0uep+HatRAL2n34/XrVsXbhyND5NrSdLjkt3hru+6x3uY+QzgeDUazUa/P3POzMyzSr+412+X9EDVYz4WnU5nuV5f+GEInjyIHpmbnf2ty0Y//1jV41+Lut3Onnq9da2Zvq8M99vDMDqeYmZXSlK93vwgn+MAVsOkBoYYI6OanTfW661b3O1fm/nFkmSmU81sNsNshePirock3RLj4BujnaaBidbrtR+WdPn8fP2LklQUxTslvU7SKRqvoHLJXQ9Lul2SYtRNvV7n4ao7NWlG560P1+vNPzXTB83s1aPf2m4W5T6+VbgO6d8ed785Rv9ir8eMmwnU13BjrL3DL+0ed/+ZpLIsF6eypjuANMzsdTMz/S2pP9vMTDHaDyf5HGbm39MwFM4yIWHDhg2vl6R6vXUtk3pS8Vvc9S0ze2+W1jxotNJSknUlTUytdADjiyAaq2Z0wfHZer114/BXijdKgzdIOscsbpVUeSAymnG3JOnuGO2vhr8a/2KtLzUKIcxJUozj/VCgInNVdyCVQx6sfKrRaH1BUsPMXuPuZ5rpjIrGfsBdD5nZfTF6x0x3TOvmg6tttNnb+xqN1hmSZOYXxhjOHS3hHKvNZlZqW8cY7jbTX0nh5ukrw2ITce4ZfW4e+kt9SQfc7Qkz3yvpYUn/p7vtLorhJprMZj88d5/LUdfdXTNVj3XtsY0S11CHY5bvWqLRaJ1hpnflaGtYqs/bucaWQlm2H282F/6D2eBDme7BTpGkEOwDkv5dVeP20WBDsI0ZmtvobtlucLvdTn9+vv7pEIrfN1OmOulDZv75RqO1uyzblZZMc/cQwmRcQ40L98h1AcbK+E6TAgAAAAAAAACsCczP7oVuAAAR7klEQVSIxqo7ZCnWjfV688/Mwi4pnCupLulMSZtXZgRlLNvRd9e9Tz/91F1zcxt+Junubndyl9odjRhjlPSgJLmHHWbOBowj7qppdGzWutGs41sl3dpotE501+lmNqob6P/MXaeaaYdWYZb0IeUWDkh6ZNTGQzGG/8PMd0t6oNNZfLzqY7JWHTJTZff8/MIXpcGuEMK/MNMujc7Bufryj0uDuNsDZuoNBt4Z/r7u6nTaU/d/YXheDg+5+xYzjUW9RfdhP8z0nIaznp+StBRjfMpMTwwG+v8kKQTbI/mTMQ72FEV4fFSeC0fAPfxnye9P+T13V83M2QhylZnF+91t5T0yFu/ZceCuWoz+f2Vsb4ekfZI/lnpcZn7D2vh8sq/GGM40y1FTeKWN+Lv1erNWVT1hs+F7NQTbPRj4UynesytjNdMeM485x9frdR+t11tXSvpYju/rr8dss2bxQkkVz4gOS5Lf7679nI9fnrtqw+uPrP9NgZdk416/F2tHvd7aIvkrQ7Bdkv9zSXK301cr/DpEX9JjIdhuSer39Usz3SX5Y2W5Fi4oj97w2EuSbzQzPoUO4a6laa9jt7CwMNfvx62Stkp2smSvDMH/iaQTNQot3bV5tDS5ZqbaKLRaNtPogY4/qeFy/b0x+v8j+aMhhL2S9kuSme8jsKrW/PzCVrO43ay2U5LM4n8v+emSdmiV6kceEjyv3Bg8FoLtjlF/6+73xjh4xCzsYbOb578fc2N0Tn6+HzHacyH4c2b+HO/b1dNotDZJ2pSyDXcPtVrYR3mU1bXyfpWkMXrPjosnc5XYGt1LJL+WHS7916/Wyvmv0WidqAwroVdKYphZv8p7rnq9OQqJ7QR3ryX+/xKrGmuu7+sKdw9mFsuyvbeK8a6o15u1TN/bNWH4vrSnpv1+F+OFIBqVaDabs5I0GISNRWEnDAb9V5oVp4Wg35XidnfbOvyTttHMV27aVmobPeeuJTM9Nfp6n7vvNQt/F6M/LPmj7mHPunVakqhVCRyLer1Zq9XCzGDgNWnlafpv1sBbmQVipj6h1WQZ3qjZplF9zxPdtT0E2yHpvx3+CT9J0mZ32zI6Dz9/Dh695K6nRg8jDki2N0b93XCmmj86/P3huZjzMAAAAACAIBoAAAAAAAAAkBSbFQIAAAAAAAAAkiKIBgAAAAAAAAAkRRANAAAAAAAAAEiKIBoAAAAAAAAAkBRBNAAAAAAAAAAgKYJoAAAAAAAAAEBSBNEAAAAAAAAAgKQIogEAAAAAAAAASRFEAwAAAAAAAACSIogGAAAAAAAAACRFEA0AAAAAAAAASIogGgAAAAAAAACQFEE0AAAAAAAAACApgmgAAAAAAAAAQFIE0QAAAAAAAACApAiiAQAAAAAAAABJEUQDAAAAAAAAAJIiiAYAAAAAAAAAJEUQDQAAAAAAAABIiiAaAAAAAAAAAJAUQTQAAAAAAAAAICmCaAAAAAAAAABAUgTRAAAAAAAAAICkCKIBAAAAAAAAAEkRRAMAAAAAAAAAkiKIBgAAAAAAAAAkRRANAAAAAAAAAEiKIBoAAAAAAAAAkBRBNAAAAAAAAAAgKYJoAAAAAAAAAEBSBNEAAAAAAAAAgKQIogEAAAAAAAAASRFEAwAAAAAAAACSIogGAAAAAAAAACRFEA0AAAAAAAAASIogGgAAAAAAAACQFEE0AAAAAAAAACApgmgAAAAAAAAAQFIE0QAAAAAAAACApAiiAQAAAAAAAABJEUQDAAAAAAAAAJIiiAYAAAAAAAAAJEUQDQAAAAAAAABIiiAaAAAAAAAAAJAUQTQAAAAAAAAAICmCaAAAAAAAAABAUgTRAAAAAAAAAICkCKIBAAAAAAAAAEkRRAMAAAAAAAAAkiKIBgAAAAAAAAAkRRANAAAAAAAAAEiKIBoAAAAAAAAAkBRBNAAAAAAAAAAgKYJoAAAAAAAAAEBSBNEAAAAAAAAAgKQIogEAAAAAAAAASRFEAwAAAAAAAACSIogGAAAAAAAAACRFEA0AAAAAAAAASIogGgAAAAAAAACQFEE0AAAAAAAAACApgmgAAAAAAAAAQFIE0QAAAAAAAACApAiiAQAAAAAAAABJEUQDAAAAAAAAAJIiiAYAAAAAAAAAJEUQDQAAAAAAAABIiiAaAAAAAAAAAJAUQTQAAAAAAAAAICmCaAAAAAAAAABAUgTRAAAAAAAAAICkCKIBAAAAAAAAAEkRRAMAAAAAAAAAkiKIBgAAAAAAAAAkRRANAAAAAAAAAEiKIBoAAAAAAAAAkBRBNAAAAAAAAAAgKYJoAAAAAAAAAEBSBNEAAAAAAAAAgKQIogEAAAAAAAAASRFEAwAAAAAAAACSIogGAAAAAAAAACRFEA0AAAAAAAAASIogGgAAAAAAAACQFEE0AAAAAAAAACApgmgAAAAAAAAAQFIE0QAAAAAAAACApAiiAQAAAAAAAABJEUQDAAAAAAAAAJIiiAYAAAAAAAAAJEUQDQAAAAAAAABIiiAaAAAAAAAAAJAUQTQAAAAAAAAAICmCaAAAAAAAAABAUgTRAAAAAAAAAICkCKIBAAAAAAAAAEkRRAMAAAAAAAAAkiKIBgAAAAAAAAAkRRANAAAAAAAAAEiKIBoAAAAAAAAAkBRBNAAAAAAAAAAgKYJoAAAAAAAAAEBSBNEAAAAAAAAAgKQIogEAAAAAAAAASRFEAwAAAAAAAACSIogGAAAAAAAAACRFEA0AAAAAAAAASIogGgAAAAAAAACQFEE0AAAAAAAAACApgmgAAAAAAAAAQFIE0QAAAAAAAACApAiiAQAAAAAAAABJEUQDAAAAAAAAAJIiiAYAAAAAAAAAJEUQDQAAAAAAAABIiiAaAAAAAAAAAJAUQTQAAAAAAAAAICmCaAAAAAAAAABAUgTRAAAAAAAAAICkCKIBAAAAAAAAAEkRRAMAAAAAAAAAkiKIBgAAAAAAAAAkRRANAAAAAAAAAEiKIBoAAAAAAAAAkBRBNAAAAAAAAAAgKYJoAAAAAAAAAEBSBNEAAAAAAAAAgKQIogEAAAAAAAAASRFEAwAAAAAAAACSIogGAAAAAAAAACRFEA0AAAAAAAAASIogGgAAAAAAAACQFEE0AAAAAAAAACApgmgAAAAAAAAAQFIE0QAAAAAAAACApAiiAQAAAAAAAABJEUQDAAAAAAAAAJIiiAYAAAAAAAAAJEUQDQAAAAAAAABIiiAaAAAAAAAAAJAUQTQAAAAAAAAAICmCaAAAAAAAAABAUgTRAAAAAAAAAICkCKIBAAAAAAAAAEkRRAMAAAAAAAAAkiKIBgAAAAAAAAAkRRANAAAAAAAAAEiKIBoAAAAAAAAAkBRBNAAAAAAAAAAgKYJoAAAAAAAAAEBSBNEAAAAAAAAAgKQIogEAAAAAAAAASRFEAwAAAAAAAACSIogGAAAAAAAAACRFEA0AAAAAAAAASIogGgAAAAAAAACQFEE0AAAAAAAAACApgmgAAAAAAAAAQFIE0QAAAAAAAACApAiiAQAAAAAAAABJEUQDAAAAAAAAAJIiiAYAAAAAAAAAJEUQDQAAAAAAAABIiiAaAAAAAAAAAJAUQTQAAAAAAAAAICmCaAAAAAAAAABAUgTRAAAAAAAAAICkCKIBAAAAAAAAAEkRRAMAAAAAAAAAkiKIBgAAAAAAAAAkRRANAAAAAAAAAEiKIBoAAAAAAAAAkBRBNAAAAAAAAAAgKYJoAAAAAAAAAEBSBNEAAAAAAAAAgKQIogEAAAAAAAAASRFEAwAAAAAAAACSIogGAAAAAAAAACRFEA0AAAAAAAAASIogGgAAAAAAAACQFEE0AAAAAAAAACApgmgAAAAAAAAAQFIE0QAAAAAAAACApAiiAQAAAAAAAABJEUQDAAAAAAAAAJIiiAYAAAAAAAAAJEUQDQAAAAAAAABIiiAaAAAAAAAAAJAUQTQAAAAAAAAAICmCaAAAAAAAAABAUgTRAAAAAAAAAICkCKIBAAAAAAAAAEkRRAMAAAAAAAAAkiKIBgAAAAAAAAAkRRANAAAAAAAAAEiKIBoAAAAAAAAAkBRBNAAAAAAAAAAgKYJoAAAAAAAAAEBSBNEAAAAAAAAAgKQIogEAAAAAAAAASRFEAwAAAAAAAACSIogGAAAAAAAAACRFEA0AAAAAAAAASIogGgAAAAAAAACQFEE0AAAAAAAAACApgmgAAAAAAAAAQFIE0QAAAAAAAACApAiiAQAAAAAAAABJEUQDAAAAAAAAAJIiiAYAAAAAAAAAJEUQDQAAAAAAAABIiiAaAAAAAAAAAJAUQTQAAAAAAAAAICmCaAAAAAAAAABAUgTRAAAAAAAAAICkCKIBAAAAAAAAAEkRRAMAAAAAAAAAkiKIBgAAAAAAAAAkRRANAAAAAAAAAEiKIBoAAAAAAAAAkBRBNAAAAAAAAAAgKYJoAAAAAAAAAEBSBNEAAAAAAAAAgKQIogEAAAAAAAAASRFEAwAAAAAAAACSIogGAAAAAAAAAPz/7dixAAAAAMAgf+tR7CuMViIaAAAAAICViAYAAAAAYCWiAQAAAABYiWgAAAAAAFYiGgAAAACAlYgGAAAAAGAlogEAAAAAWIloAAAAAABWIhoAAAAAgJWIBgAAAABgJaIBAAAAAFiJaAAAAAAAViIaAAAAAICViAYAAAAAYCWiAQAAAABYiWgAAAAAAFYiGgAAAACAlYgGAAAAAGAlogEAAAAAWIloAAAAAABWIhoAAAAAgJWIBgAAAABgJaIBAAAAAFiJaAAAAAAAViIaAAAAAICViAYAAAAAYCWiAQAAAABYiWgAAAAAAFYiGgAAAACAlYgGAAAAAGAlogEAAAAAWIloAAAAAABWIhoAAAAAgJWIBgAAAABgJaIBAAAAAFiJaAAAAAAAViIaAAAAAICViAYAAAAAYCWiAQAAAABYiWgAAAAAAFYiGgAAAACAlYgGAAAAAGAlogEAAAAAWIloAAAAAABWIhoAAAAAgJWIBgAAAABgJaIBAAAAAFiJaAAAAAAAViIaAAAAAICViAYAAAAAYCWiAQAAAABYiWgAAAAAAFYiGgAAAACAlYgGAAAAAGAlogEAAAAAWIloAAAAAABWIhoAAAAAgJWIBgAAAABgJaIBAAAAAFiJaAAAAAAAViIaAAAAAICViAYAAAAAYCWiAQAAAABYiWgAAAAAAFYiGgAAAACAlYgGAAAAAGAlogEAAAAAWIloAAAAAABWIhoAAAAAgJWIBgAAAABgJaIBAAAAAFiJaAAAAAAAViIaAAAAAICViAYAAAAAYCWiAQAAAABYiWgAAAAAAFYiGgAAAACAlYgGAAAAAGAlogEAAAAAWIloAAAAAABWIhoAAAAAgJWIBgAAAABgJaIBAAAAAFiJaAAAAAAAViIaAAAAAICViAYAAAAAYCWiAQAAAABYiWgAAAAAAFYiGgAAAACAlYgGAAAAAGAlogEAAAAAWIloAAAAAABWIhoAAAAAgJWIBgAAAABgJaIBAAAAAFiJaAAAAAAAViIaAAAAAICViAYAAAAAYCWiAQAAAABYiWgAAAAAAFYiGgAAAACAlYgGAAAAAGAlogEAAAAAWIloAAAAAABWIhoAAAAAgJWIBgAAAABgJaIBAAAAAFiJaAAAAAAAViIaAAAAAICViAYAAAAAYCWiAQAAAABYiWgAAAAAAFYiGgAAAACAlYgGAAAAAGAlogEAAAAAWIloAAAAAABWIhoAAAAAgJWIBgAAAABgJaIBAAAAAFiJaAAAAAAAViIaAAAAAICViAYAAAAAYCWiAQAAAABYiWgAAAAAAFYiGgAAAACAlYgGAAAAAGAlogEAAAAAWIloAAAAAABWIhoAAAAAgJWIBgAAAABgJaIBAAAAAFiJaAAAAAAAViIaAAAAAICViAYAAAAAYCWiAQAAAABYiWgAAAAAAFYiGgAAAACAlYgGAAAAAGAlogEAAAAAWIloAAAAAABWIhoAAAAAgJWIBgAAAABgJaIBAAAAAFiJaAAAAAAAViIaAAAAAICViAYAAAAAYCWiAQAAAABYiWgAAAAAAFYiGgAAAACAlYgGAAAAAGAlogEAAAAAWIloAAAAAABWIhoAAAAAgJWIBgAAAABgFbi+JoepzvwMAAAAAElFTkSuQmCC;" vertex="1" parent="1">
          <mxGeometry x="95" y="-177" width="139" height="137.07" as="geometry" />
        </mxCell>
        <mxCell id="bbAkyL6tMdeNT06zovwA-3" value="&lt;font face=&quot;Comic Sans MS&quot; style=&quot;font-size: 23px;&quot;&gt;talkode.kotoca.net&lt;/font&gt;&lt;div&gt;&lt;font color=&quot;#ff0000&quot; style=&quot;font-size: 15px;&quot; face=&quot;Comic Sans MS&quot;&gt;web&lt;/font&gt;&lt;/div&gt;" style="text;html=1;align=center;verticalAlign=middle;resizable=0;points=[];autosize=1;strokeColor=none;fillColor=none;" vertex="1" parent="1">
          <mxGeometry x="-364" y="-32" width="216" height="58" as="geometry" />
        </mxCell>
      </root>
    </mxGraphModel>
  </diagram>
</mxfile>
